<svg xmlns="http://www.w3.org/2000/svg" width="24.778" height="33.808" viewBox="0 0 24.778 33.808" fill="none">
  <path d="M 12.496 0 C 13.623 0 14.539 0.917 14.539 2.044 L 14.539 3.062 L 18.903 3.062 C 19.162 3.062 19.373 3.272 19.373 3.531 L 19.373 4.778 L 23.197 4.778 C 24.068 4.779 24.778 5.488 24.778 6.359 L 24.778 32.227 C 24.778 33.098 24.068 33.807 23.197 33.808 L 1.581 33.808 C 0.71 33.808 0 33.098 0 32.227 L 0 6.359 C 0 5.488 0.71 4.778 1.581 4.778 L 5.619 4.778 L 5.619 3.531 C 5.619 3.272 5.829 3.062 6.088 3.062 L 10.453 3.062 L 10.453 2.044 C 10.453 0.917 11.369 0 12.496 0 Z M 1.585 5.713 C 1.228 5.713 0.938 6.003 0.938 6.359 L 0.938 32.227 C 0.938 32.583 1.228 32.873 1.585 32.873 L 23.208 32.873 C 23.565 32.873 23.854 32.583 23.854 32.227 L 23.854 6.359 C 23.854 6.003 23.565 5.713 23.208 5.713 L 19.377 5.713 L 19.377 6.889 C 19.377 7.148 19.166 7.358 18.907 7.358 L 6.092 7.358 C 5.833 7.358 5.622 7.148 5.622 6.889 L 5.622 5.713 L 1.585 5.713 Z M 20.343 23.749 C 20.531 23.573 20.827 23.584 21.004 23.771 C 21.18 23.959 21.169 24.256 20.981 24.433 L 14.904 30.097 C 14.814 30.179 14.701 30.221 14.585 30.221 C 14.469 30.221 14.356 30.175 14.266 30.093 L 11.479 27.49 C 11.291 27.314 11.28 27.017 11.456 26.829 C 11.633 26.641 11.929 26.63 12.117 26.807 L 14.585 29.113 L 20.343 23.745 L 20.343 23.749 Z M 8.203 25.586 C 8.462 25.586 8.672 25.797 8.672 26.056 C 8.672 26.315 8.462 26.525 8.203 26.525 L 4.263 26.525 C 4.004 26.525 3.793 26.315 3.793 26.056 C 3.793 25.797 4.004 25.586 4.263 25.586 L 8.203 25.586 Z M 20.661 19.329 C 20.92 19.329 21.131 19.539 21.131 19.798 C 21.131 20.057 20.92 20.268 20.661 20.268 L 4.263 20.268 C 4.004 20.268 3.793 20.057 3.793 19.798 C 3.793 19.539 4.004 19.329 4.263 19.329 L 20.661 19.329 Z M 20.661 13.067 C 20.92 13.067 21.131 13.278 21.131 13.537 C 21.131 13.796 20.92 14.006 20.661 14.006 L 4.263 14.006 C 4.004 14.006 3.793 13.796 3.793 13.537 C 3.793 13.278 4.004 13.067 4.263 13.067 L 20.661 13.067 Z M 12.504 0.936 C 11.892 0.936 11.396 1.435 11.396 2.044 L 11.396 3.531 C 11.395 3.79 11.185 4 10.926 4 L 6.569 4 L 6.569 6.423 L 18.445 6.423 L 18.445 4 L 14.081 4 C 13.822 4 13.612 3.79 13.611 3.531 L 13.611 2.044 C 13.611 1.432 13.116 0.936 12.504 0.936 Z" fill="currentColor" fill-rule="nonzero"></path>
</svg>
