<svg xmlns="http://www.w3.org/2000/svg" width="34.533" height="34.533" viewBox="0 0 34.533 34.533" fill="none">
  <path d="M 22.154 19.715 C 22.104 19.355 22.143 18.988 22.267 18.647 L 22.301 18.553 C 22.526 17.908 22.445 17.195 22.079 16.618 C 21.735 16.075 21.157 15.725 20.517 15.673 C 20.225 15.651 19.931 15.688 19.651 15.78 C 19.132 15.954 18.706 16.332 18.469 16.826 C 18.212 17.353 18.177 17.961 18.368 18.514 L 18.424 18.676 C 18.534 19.004 18.569 19.351 18.53 19.693 C 18.468 20.139 18.088 20.469 17.641 20.471 L 14.506 20.471 C 14.222 20.471 13.991 20.24 13.991 19.956 L 13.991 16.513 C 13.991 16.455 13.982 16.398 13.96 16.345 C 13.761 15.865 13.321 15.527 12.804 15.462 C 12.378 15.408 11.946 15.455 11.54 15.598 L 11.374 15.654 C 10.964 15.794 10.515 15.768 10.124 15.579 C 9.77 15.405 9.498 15.093 9.371 14.717 C 9.316 14.552 9.286 14.379 9.286 14.204 L 9.286 14.071 L 9.286 14.072 C 9.327 13.609 9.58 13.19 9.97 12.939 C 10.396 12.666 10.924 12.605 11.4 12.777 L 11.494 12.806 C 11.921 12.961 12.378 13.01 12.826 12.949 C 13.32 12.873 13.739 12.549 13.938 12.092 C 13.948 12.069 13.937 12.043 13.914 12.033 C 13.867 12.013 13.881 11.944 13.932 11.944 C 13.957 11.944 13.978 11.924 13.978 11.898 L 13.978 7.549 C 13.978 7.264 13.747 7.033 13.462 7.033 L 0.515 7.033 C 0.231 7.033 0 7.264 0 7.549 L 0 34.018 C 0 34.302 0.231 34.533 0.515 34.533 L 26.987 34.533 C 27.271 34.533 27.502 34.302 27.502 34.018 L 27.502 21.006 C 27.502 20.721 27.271 20.49 26.987 20.49 L 23.049 20.49 C 22.6 20.493 22.218 20.163 22.154 19.715 Z M 0.565 8.101 C 0.565 7.816 0.796 7.585 1.08 7.585 L 12.911 7.585 C 13.196 7.585 13.426 7.816 13.426 8.101 L 13.426 11.763 C 13.426 11.836 13.413 11.909 13.375 11.972 C 13.238 12.197 13.008 12.353 12.744 12.395 C 12.384 12.443 12.018 12.405 11.675 12.281 L 11.574 12.24 C 10.933 12.014 10.224 12.097 9.651 12.463 C 9.107 12.809 8.756 13.392 8.706 14.039 L 8.706 14.205 L 8.706 14.204 C 8.706 14.44 8.744 14.676 8.819 14.899 C 8.992 15.42 9.369 15.848 9.861 16.085 C 10.386 16.344 10.992 16.379 11.545 16.187 L 11.71 16.131 C 11.71 16.131 11.71 16.131 11.71 16.131 C 11.71 16.131 11.71 16.131 11.71 16.131 C 12.035 16.019 12.381 15.982 12.722 16.025 C 13.008 16.063 13.254 16.239 13.386 16.491 C 13.416 16.548 13.427 16.613 13.427 16.677 L 13.427 19.982 C 13.427 20.266 13.197 20.496 12.914 20.498 L 9.864 20.514 C 9.863 20.514 9.862 20.514 9.862 20.513 C 9.861 20.513 9.861 20.512 9.86 20.512 C 9.128 20.514 8.51 21.059 8.413 21.786 C 8.367 22.215 8.419 22.649 8.563 23.055 L 8.619 23.222 C 8.761 23.634 8.733 24.085 8.544 24.476 C 8.372 24.832 8.063 25.105 7.69 25.232 C 7.481 25.3 7.262 25.326 7.043 25.312 C 6.58 25.273 6.161 25.018 5.914 24.624 C 5.639 24.197 5.578 23.666 5.747 23.188 L 5.781 23.094 C 5.936 22.666 5.986 22.207 5.928 21.756 C 5.825 21.029 5.203 20.489 4.471 20.49 L 1.08 20.49 C 0.796 20.49 0.565 20.26 0.565 19.975 L 0.565 8.101 Z M 13.426 30.063 L 13.426 33.451 C 13.426 33.736 13.196 33.967 12.911 33.967 L 1.08 33.967 C 0.796 33.967 0.565 33.736 0.565 33.451 L 0.565 21.572 C 0.565 21.288 0.796 21.057 1.08 21.057 L 4.452 21.057 C 4.905 21.055 5.289 21.389 5.349 21.839 C 5.397 22.199 5.359 22.567 5.236 22.907 L 5.206 23.001 C 5.206 23.002 5.206 23.002 5.206 23.002 C 5.205 23.002 5.205 23.002 5.205 23.003 C 4.977 23.646 5.058 24.36 5.428 24.934 C 5.769 25.478 6.346 25.829 6.985 25.881 L 7.163 25.881 C 7.397 25.881 7.629 25.843 7.851 25.767 C 8.37 25.595 8.797 25.217 9.033 24.721 C 9.289 24.194 9.327 23.588 9.139 23.033 L 9.079 22.866 C 8.969 22.541 8.933 22.195 8.973 21.854 C 9.039 21.411 9.418 21.082 9.865 21.083 L 12.912 21.067 C 13.196 21.065 13.428 21.294 13.431 21.578 L 13.456 24.634 C 13.456 24.801 13.484 24.966 13.538 25.122 C 13.717 25.645 14.178 26.02 14.725 26.089 C 15.151 26.138 15.583 26.092 15.989 25.953 L 16.15 25.897 C 16.15 25.897 16.151 25.897 16.151 25.896 C 16.151 25.896 16.151 25.896 16.151 25.895 C 16.561 25.754 17.011 25.781 17.4 25.972 C 17.755 26.145 18.025 26.455 18.153 26.83 C 18.206 26.995 18.234 27.169 18.236 27.343 L 18.236 27.479 C 18.199 27.944 17.944 28.365 17.55 28.613 C 17.125 28.888 16.598 28.949 16.12 28.779 L 16.026 28.745 C 15.601 28.592 15.145 28.543 14.698 28.605 C 14.185 28.677 13.748 29.015 13.55 29.496 C 13.47 29.675 13.429 29.868 13.426 30.063 Z M 26.938 33.451 C 26.938 33.736 26.707 33.967 26.422 33.967 L 14.596 33.967 C 14.311 33.967 14.081 33.736 14.081 33.451 L 14.081 29.785 C 14.081 29.712 14.094 29.638 14.133 29.576 C 14.27 29.353 14.5 29.201 14.761 29.165 C 15.12 29.113 15.486 29.151 15.827 29.274 L 15.921 29.308 C 16.562 29.538 17.275 29.455 17.849 29.085 C 18.393 28.737 18.741 28.152 18.79 27.506 L 18.79 27.339 C 18.79 27.105 18.752 26.871 18.677 26.649 C 18.502 26.128 18.127 25.698 17.634 25.458 C 17.108 25.202 16.504 25.165 15.951 25.356 L 15.786 25.412 C 15.785 25.412 15.785 25.412 15.785 25.413 C 15.786 25.413 15.786 25.414 15.785 25.414 C 15.46 25.524 15.117 25.562 14.778 25.523 C 14.488 25.485 14.239 25.306 14.111 25.049 C 14.083 24.994 14.073 24.932 14.073 24.87 L 14.073 21.572 C 14.073 21.288 14.304 21.057 14.589 21.057 L 17.637 21.057 C 18.384 21.064 19.015 20.505 19.102 19.761 C 19.154 19.333 19.109 18.899 18.969 18.492 L 18.909 18.33 C 18.769 17.918 18.797 17.467 18.988 17.075 C 19.159 16.717 19.468 16.445 19.842 16.32 C 20.051 16.252 20.272 16.225 20.491 16.24 C 20.953 16.283 21.369 16.537 21.62 16.928 C 21.884 17.343 21.949 17.855 21.796 18.322 C 21.787 18.35 21.774 18.377 21.759 18.402 C 21.744 18.427 21.731 18.453 21.722 18.48 C 21.579 18.896 21.535 19.34 21.597 19.776 C 21.699 20.502 22.32 21.042 23.049 21.042 L 26.422 21.042 C 26.707 21.042 26.938 21.273 26.938 21.558 L 26.938 33.451 Z M 21.882 0.179 C 21.615 0.08 21.318 0.217 21.219 0.484 L 19.854 4.193 C 19.7 4.616 19.259 4.861 18.819 4.767 C 18.465 4.688 18.134 4.525 17.856 4.292 L 17.782 4.227 C 17.781 4.227 17.781 4.227 17.78 4.227 C 17.78 4.227 17.779 4.226 17.779 4.226 C 17.257 3.79 16.562 3.62 15.898 3.766 C 15.273 3.899 14.746 4.32 14.476 4.899 C 14.45 4.953 14.427 5.009 14.404 5.066 C 14.325 5.286 14.28 5.518 14.273 5.754 C 14.257 6.301 14.461 6.834 14.841 7.23 C 15.245 7.653 15.801 7.898 16.384 7.91 L 16.558 7.91 L 16.556 7.91 C 16.9 7.919 17.237 8.004 17.543 8.159 C 17.949 8.369 18.134 8.85 17.972 9.278 L 16.729 12.691 C 16.632 12.957 16.768 13.252 17.035 13.35 L 20.562 14.654 C 20.689 14.702 20.831 14.637 20.879 14.509 L 20.827 14.694 C 20.819 14.721 20.839 14.747 20.867 14.747 L 20.908 14.747 C 20.908 14.747 20.908 14.747 20.908 14.748 C 20.908 14.748 20.909 14.749 20.909 14.749 C 21.45 14.753 21.948 14.452 22.199 13.971 C 22.393 13.586 22.501 13.162 22.511 12.731 L 22.511 12.554 C 22.526 12.123 22.707 11.717 23.015 11.421 C 23.3 11.146 23.683 10.997 24.077 11.008 C 24.252 11.012 24.425 11.046 24.588 11.106 L 24.709 11.16 C 25.131 11.354 25.435 11.738 25.529 12.194 C 25.638 12.691 25.512 13.209 25.188 13.6 L 25.128 13.676 C 24.835 14.024 24.631 14.439 24.533 14.884 C 24.428 15.379 24.585 15.894 24.945 16.245 C 24.962 16.261 24.99 16.26 25.006 16.242 C 25.038 16.207 25.095 16.244 25.078 16.289 C 25.069 16.312 25.081 16.337 25.103 16.346 L 29.184 17.856 C 29.451 17.955 29.748 17.818 29.847 17.551 L 34.355 5.344 C 34.453 5.078 34.317 4.781 34.05 4.683 L 21.882 0.179 Z M 29.521 16.821 C 29.423 17.088 29.126 17.226 28.858 17.127 L 25.438 15.861 C 25.367 15.835 25.301 15.795 25.256 15.735 C 25.097 15.528 25.034 15.26 25.09 15.001 C 25.166 14.645 25.329 14.313 25.564 14.034 L 25.629 13.96 C 25.629 13.959 25.629 13.959 25.628 13.959 C 25.628 13.959 25.628 13.959 25.628 13.958 C 26.063 13.433 26.232 12.737 26.086 12.07 C 25.953 11.443 25.535 10.913 24.957 10.639 L 24.792 10.571 C 24.792 10.571 24.792 10.571 24.792 10.571 C 24.792 10.571 24.792 10.57 24.792 10.57 C 24.572 10.488 24.341 10.444 24.107 10.438 C 23.559 10.417 23.028 10.624 22.636 11.007 C 22.214 11.415 21.971 11.971 21.958 12.557 L 21.958 12.731 C 21.951 13.076 21.864 13.414 21.707 13.721 C 21.571 13.968 21.33 14.136 21.057 14.179 C 20.989 14.19 20.921 14.177 20.857 14.153 L 17.779 13.015 C 17.513 12.917 17.376 12.623 17.473 12.356 L 18.515 9.471 C 18.766 8.782 18.472 8.012 17.825 7.668 C 17.443 7.47 17.021 7.364 16.59 7.355 L 16.417 7.355 L 16.418 7.355 C 15.989 7.343 15.583 7.16 15.289 6.849 C 15.014 6.564 14.864 6.18 14.874 5.784 C 14.878 5.63 14.903 5.478 14.951 5.332 C 14.965 5.291 14.973 5.246 14.993 5.208 C 15.005 5.186 15.018 5.165 15.026 5.147 C 15.026 5.146 15.026 5.146 15.026 5.145 C 15.026 5.145 15.026 5.144 15.026 5.144 C 15.223 4.724 15.607 4.42 16.061 4.325 C 16.553 4.218 17.068 4.343 17.456 4.665 L 17.531 4.73 C 17.88 5.022 18.293 5.227 18.737 5.326 C 19.451 5.477 20.167 5.08 20.423 4.393 L 21.56 1.221 C 21.657 0.95 21.956 0.811 22.225 0.911 L 33.3 5.038 C 33.565 5.137 33.701 5.432 33.603 5.698 L 29.521 16.821 Z" fill="currentColor" fill-rule="nonzero"></path>
  <path d="M 22.154 19.715 L 21.962 19.742 L 21.962 19.743 L 22.154 19.715 Z M 22.267 18.647 L 22.449 18.713 L 22.449 18.712 L 22.267 18.647 Z M 22.301 18.553 L 22.483 18.618 L 22.483 18.616 L 22.301 18.553 Z M 22.079 16.618 L 21.915 16.721 L 21.915 16.721 L 22.079 16.618 Z M 20.517 15.673 L 20.533 15.481 L 20.532 15.481 L 20.517 15.673 Z M 19.651 15.78 L 19.591 15.596 L 19.59 15.596 L 19.651 15.78 Z M 18.469 16.826 L 18.643 16.911 L 18.644 16.909 L 18.469 16.826 Z M 18.368 18.514 L 18.551 18.451 L 18.55 18.451 L 18.368 18.514 Z M 18.424 18.676 L 18.607 18.615 L 18.606 18.614 L 18.424 18.676 Z M 18.53 19.693 L 18.721 19.72 L 18.722 19.716 L 18.53 19.693 Z M 17.641 20.471 L 17.641 20.664 L 17.642 20.664 L 17.641 20.471 Z M 12.804 15.462 L 12.78 15.654 L 12.781 15.654 L 12.804 15.462 Z M 11.54 15.598 L 11.602 15.781 L 11.604 15.78 L 11.54 15.598 Z M 11.374 15.654 L 11.312 15.471 L 11.311 15.471 L 11.374 15.654 Z M 10.124 15.579 L 10.039 15.752 L 10.04 15.753 L 10.124 15.579 Z M 9.371 14.717 L 9.555 14.656 L 9.555 14.655 L 9.371 14.717 Z M 9.286 14.072 L 9.093 14.072 L 9.479 14.089 L 9.286 14.072 Z M 9.97 12.939 L 9.866 12.776 L 9.865 12.776 L 9.97 12.939 Z M 11.4 12.777 L 11.335 12.959 L 11.342 12.961 L 11.4 12.777 Z M 11.494 12.806 L 11.561 12.624 L 11.552 12.622 L 11.494 12.806 Z M 12.826 12.949 L 12.852 13.141 L 12.856 13.14 L 12.826 12.949 Z M 23.049 20.49 L 23.049 20.297 L 23.048 20.297 L 23.049 20.49 Z M 12.744 12.395 L 12.77 12.586 L 12.774 12.586 L 12.744 12.395 Z M 11.675 12.281 L 11.602 12.46 L 11.61 12.463 L 11.675 12.281 Z M 11.574 12.24 L 11.647 12.06 L 11.638 12.057 L 11.574 12.24 Z M 9.651 12.463 L 9.755 12.626 L 9.755 12.625 L 9.651 12.463 Z M 8.706 14.039 L 8.513 14.024 L 8.512 14.031 L 8.512 14.039 L 8.706 14.039 Z M 8.819 14.899 L 9.002 14.838 L 9.002 14.837 L 8.819 14.899 Z M 9.861 16.085 L 9.946 15.912 L 9.945 15.911 L 9.861 16.085 Z M 11.545 16.187 L 11.483 16.004 L 11.481 16.005 L 11.545 16.187 Z M 12.722 16.025 L 12.748 15.833 L 12.746 15.833 L 12.722 16.025 Z M 8.413 21.786 L 8.221 21.76 L 8.221 21.766 L 8.413 21.786 Z M 8.563 23.055 L 8.746 22.994 L 8.745 22.99 L 8.563 23.055 Z M 8.619 23.222 L 8.436 23.283 L 8.436 23.285 L 8.619 23.222 Z M 8.544 24.476 L 8.37 24.392 L 8.37 24.392 L 8.544 24.476 Z M 7.69 25.232 L 7.749 25.416 L 7.752 25.415 L 7.69 25.232 Z M 7.043 25.312 L 7.027 25.504 L 7.03 25.504 L 7.043 25.312 Z M 5.914 24.624 L 6.077 24.521 L 6.076 24.519 L 5.914 24.624 Z M 5.747 23.188 L 5.565 23.123 L 5.565 23.124 L 5.747 23.188 Z M 5.781 23.094 L 5.599 23.028 L 5.599 23.028 L 5.781 23.094 Z M 5.928 21.756 L 6.12 21.732 L 6.12 21.729 L 5.928 21.756 Z M 4.471 20.49 L 4.471 20.684 L 4.472 20.684 L 4.471 20.49 Z M 13.426 30.063 L 13.233 30.06 L 13.233 30.063 L 13.426 30.063 Z M 4.452 21.057 L 4.452 21.25 L 4.453 21.25 L 4.452 21.057 Z M 5.349 21.839 L 5.157 21.865 L 5.157 21.865 L 5.349 21.839 Z M 5.236 22.907 L 5.054 22.842 L 5.051 22.85 L 5.236 22.907 Z M 5.428 24.934 L 5.592 24.831 L 5.591 24.829 L 5.428 24.934 Z M 6.985 25.881 L 6.97 26.074 L 6.977 26.074 L 6.985 26.074 L 6.985 25.881 Z M 7.851 25.767 L 7.79 25.584 L 7.789 25.584 L 7.851 25.767 Z M 9.033 24.721 L 8.859 24.637 L 8.859 24.638 L 9.033 24.721 Z M 9.139 23.033 L 9.322 22.971 L 9.321 22.967 L 9.139 23.033 Z M 9.079 22.866 L 8.896 22.928 L 8.897 22.932 L 9.079 22.866 Z M 8.973 21.854 L 8.782 21.825 L 8.781 21.831 L 8.973 21.854 Z M 9.865 21.083 L 9.865 21.277 L 9.866 21.277 L 9.865 21.083 Z M 13.456 24.634 L 13.649 24.634 L 13.649 24.632 L 13.456 24.634 Z M 13.538 25.122 L 13.721 25.06 L 13.721 25.059 L 13.538 25.122 Z M 14.725 26.089 L 14.7 26.281 L 14.703 26.281 L 14.725 26.089 Z M 15.989 25.953 L 16.051 26.136 L 16.052 26.136 L 15.989 25.953 Z M 17.4 25.972 L 17.315 26.146 L 17.316 26.146 L 17.4 25.972 Z M 18.153 26.83 L 18.337 26.771 L 18.336 26.767 L 18.153 26.83 Z M 18.236 27.343 L 18.429 27.343 L 18.429 27.342 L 18.236 27.343 Z M 18.236 27.479 L 18.428 27.494 L 18.429 27.487 L 18.429 27.479 L 18.236 27.479 Z M 17.55 28.613 L 17.447 28.449 L 17.445 28.45 L 17.55 28.613 Z M 16.12 28.779 L 16.054 28.961 L 16.055 28.961 L 16.12 28.779 Z M 16.026 28.745 L 15.96 28.927 L 15.96 28.927 L 16.026 28.745 Z M 14.698 28.605 L 14.672 28.414 L 14.671 28.414 L 14.698 28.605 Z M 13.55 29.496 L 13.727 29.575 L 13.729 29.57 L 13.55 29.496 Z M 14.761 29.165 L 14.788 29.356 L 14.789 29.356 L 14.761 29.165 Z M 15.827 29.274 L 15.893 29.092 L 15.893 29.092 L 15.827 29.274 Z M 15.921 29.308 L 15.856 29.49 L 15.856 29.49 L 15.921 29.308 Z M 17.849 29.085 L 17.745 28.922 L 17.744 28.923 L 17.849 29.085 Z M 18.79 27.506 L 18.983 27.52 L 18.983 27.513 L 18.983 27.506 L 18.79 27.506 Z M 18.677 26.649 L 18.493 26.71 L 18.493 26.71 L 18.677 26.649 Z M 17.634 25.458 L 17.719 25.284 L 17.719 25.284 L 17.634 25.458 Z M 15.951 25.356 L 16.013 25.539 L 16.014 25.539 L 15.951 25.356 Z M 14.778 25.523 L 14.753 25.714 L 14.755 25.715 L 14.778 25.523 Z M 17.637 21.057 L 17.639 20.864 L 17.637 20.864 L 17.637 21.057 Z M 19.102 19.761 L 18.91 19.738 L 18.91 19.739 L 19.102 19.761 Z M 18.969 18.492 L 19.152 18.429 L 19.15 18.425 L 18.969 18.492 Z M 18.909 18.33 L 18.726 18.392 L 18.728 18.397 L 18.909 18.33 Z M 18.988 17.075 L 19.162 17.16 L 19.163 17.159 L 18.988 17.075 Z M 19.842 16.32 L 19.783 16.136 L 19.781 16.137 L 19.842 16.32 Z M 20.491 16.24 L 20.509 16.048 L 20.504 16.047 L 20.491 16.24 Z M 21.62 16.928 L 21.783 16.824 L 21.783 16.823 L 21.62 16.928 Z M 21.597 19.776 L 21.405 19.803 L 21.405 19.803 L 21.597 19.776 Z M 19.854 4.193 L 19.673 4.126 L 19.673 4.126 L 19.854 4.193 Z M 18.819 4.767 L 18.777 4.955 L 18.778 4.956 L 18.819 4.767 Z M 17.856 4.292 L 17.73 4.438 L 17.732 4.44 L 17.856 4.292 Z M 15.898 3.766 L 15.938 3.955 L 15.939 3.955 L 15.898 3.766 Z M 14.476 4.899 L 14.649 4.986 L 14.651 4.981 L 14.476 4.899 Z M 14.404 5.066 L 14.225 4.993 L 14.222 5.001 L 14.404 5.066 Z M 14.273 5.754 L 14.08 5.748 L 14.08 5.748 L 14.273 5.754 Z M 14.841 7.23 L 14.98 7.096 L 14.98 7.096 L 14.841 7.23 Z M 16.384 7.91 L 16.38 8.103 L 16.384 8.103 L 16.384 7.91 Z M 16.556 7.91 L 16.556 7.717 L 16.551 8.103 L 16.556 7.91 Z M 17.543 8.159 L 17.632 7.988 L 17.63 7.987 L 17.543 8.159 Z M 17.972 9.278 L 17.791 9.21 L 17.791 9.212 L 17.972 9.278 Z M 20.879 14.509 L 21.065 14.562 L 20.698 14.441 L 20.879 14.509 Z M 22.199 13.971 L 22.371 14.06 L 22.372 14.058 L 22.199 13.971 Z M 22.511 12.731 L 22.704 12.736 L 22.704 12.731 L 22.511 12.731 Z M 22.511 12.554 L 22.318 12.548 L 22.318 12.554 L 22.511 12.554 Z M 23.015 11.421 L 23.149 11.56 L 23.149 11.56 L 23.015 11.421 Z M 24.077 11.008 L 24.072 11.201 L 24.072 11.201 L 24.077 11.008 Z M 24.588 11.106 L 24.666 10.929 L 24.656 10.925 L 24.588 11.106 Z M 24.709 11.16 L 24.79 10.984 L 24.787 10.983 L 24.709 11.16 Z M 25.529 12.194 L 25.34 12.233 L 25.341 12.235 L 25.529 12.194 Z M 25.188 13.6 L 25.039 13.477 L 25.037 13.48 L 25.188 13.6 Z M 25.128 13.676 L 25.276 13.8 L 25.279 13.797 L 25.128 13.676 Z M 24.533 14.884 L 24.344 14.843 L 24.343 14.844 L 24.533 14.884 Z M 25.09 15.001 L 24.901 14.96 L 24.901 14.961 L 25.09 15.001 Z M 25.564 14.034 L 25.418 13.908 L 25.417 13.91 L 25.564 14.034 Z M 26.086 12.07 L 25.897 12.11 L 25.898 12.111 L 26.086 12.07 Z M 24.957 10.639 L 25.04 10.464 L 25.03 10.46 L 24.957 10.639 Z M 24.107 10.438 L 24.1 10.631 L 24.103 10.631 L 24.107 10.438 Z M 22.636 11.007 L 22.77 11.147 L 22.771 11.146 L 22.636 11.007 Z M 21.958 12.557 L 21.765 12.553 L 21.765 12.557 L 21.958 12.557 Z M 21.958 12.731 L 22.151 12.735 L 22.151 12.731 L 21.958 12.731 Z M 21.707 13.721 L 21.876 13.815 L 21.879 13.81 L 21.707 13.721 Z M 18.515 9.471 L 18.333 9.405 L 18.333 9.406 L 18.515 9.471 Z M 17.825 7.668 L 17.916 7.497 L 17.914 7.496 L 17.825 7.668 Z M 16.59 7.355 L 16.594 7.162 L 16.59 7.162 L 16.59 7.355 Z M 16.418 7.355 L 16.418 7.548 L 16.423 7.162 L 16.418 7.355 Z M 15.289 6.849 L 15.43 6.716 L 15.428 6.715 L 15.289 6.849 Z M 14.874 5.784 L 15.068 5.789 L 15.068 5.788 L 14.874 5.784 Z M 16.061 4.325 L 16.1 4.515 L 16.102 4.514 L 16.061 4.325 Z M 17.456 4.665 L 17.583 4.519 L 17.579 4.516 L 17.456 4.665 Z M 17.531 4.73 L 17.405 4.876 L 17.407 4.878 L 17.531 4.73 Z M 18.737 5.326 L 18.695 5.515 L 18.697 5.515 L 18.737 5.326 Z M 20.423 4.393 L 20.604 4.461 L 20.605 4.459 L 20.423 4.393 Z M 33.3 5.038 L 33.367 4.857 L 33.3 5.038 Z M 33.603 5.698 L 33.785 5.765 L 33.603 5.698 Z M 21.56 1.221 L 21.742 1.286 L 21.56 1.221 Z M 22.225 0.911 L 22.158 1.092 L 22.225 0.911 Z M 15.026 5.144 L 15.201 5.226 L 15.026 5.144 Z M 15.026 5.147 L 14.846 5.074 L 15.026 5.147 Z M 14.951 5.332 L 15.135 5.392 L 14.951 5.332 Z M 14.993 5.208 L 14.823 5.117 L 14.993 5.208 Z M 17.779 13.015 L 17.711 13.196 L 17.779 13.015 Z M 17.473 12.356 L 17.654 12.422 L 17.473 12.356 Z M 21.057 14.179 L 21.087 14.37 L 21.057 14.179 Z M 20.857 14.153 L 20.924 13.972 L 20.857 14.153 Z M 24.792 10.57 L 24.86 10.389 L 24.792 10.57 Z M 24.792 10.571 L 24.719 10.75 L 24.792 10.571 Z M 25.628 13.958 L 25.777 14.082 L 25.628 13.958 Z M 25.629 13.96 L 25.482 13.834 L 25.629 13.96 Z M 25.438 15.861 L 25.371 16.042 L 25.438 15.861 Z M 25.256 15.735 L 25.102 15.853 L 25.256 15.735 Z M 28.858 17.127 L 28.791 17.308 L 28.858 17.127 Z M 29.521 16.821 L 29.702 16.887 L 29.521 16.821 Z M 34.355 5.344 L 34.173 5.277 L 34.355 5.344 Z M 34.05 4.683 L 34.117 4.501 L 34.117 4.501 L 34.05 4.683 Z M 20.909 14.749 L 20.908 14.942 L 20.909 14.749 Z M 9.862 20.513 L 9.725 20.65 L 9.862 20.513 Z M 9.86 20.512 L 9.861 20.706 L 9.86 20.512 Z M 17.779 4.226 L 17.903 4.078 L 17.779 4.226 Z M 17.782 4.227 L 17.655 4.373 L 17.782 4.227 Z M 15.785 25.413 L 15.922 25.276 L 15.785 25.413 Z M 15.785 25.414 L 15.847 25.597 L 15.785 25.414 Z M 9.864 20.514 L 9.865 20.707 L 9.865 20.707 L 9.864 20.514 Z M 20.827 14.694 L 20.641 14.641 L 20.827 14.694 Z M 14.133 29.576 L 13.968 29.474 L 14.133 29.576 Z M 16.151 25.895 L 16.088 25.713 L 16.151 25.895 Z M 16.15 25.897 L 16.087 25.715 L 16.15 25.897 Z M 12.912 21.067 L 12.913 21.26 L 12.912 21.067 Z M 13.431 21.578 L 13.237 21.58 L 13.431 21.578 Z M 24.945 16.245 L 25.08 16.106 L 24.945 16.245 Z M 25.006 16.242 L 24.863 16.112 L 25.006 16.242 Z M 29.847 17.551 L 29.665 17.484 L 29.847 17.551 Z M 14.111 25.049 L 13.938 25.135 L 14.111 25.049 Z M 25.078 16.289 L 25.258 16.358 L 25.078 16.289 Z M 25.103 16.346 L 25.036 16.527 L 25.103 16.346 Z M 15.786 25.412 L 15.847 25.595 L 15.786 25.412 Z M 0.565 19.975 L 0.371 19.975 L 0.565 19.975 Z M 11.71 16.131 L 11.648 15.948 L 11.71 16.131 Z M 21.219 0.484 L 21.401 0.551 L 21.219 0.484 Z M 21.882 0.179 L 21.815 0.36 L 21.882 0.179 Z M 13.375 11.972 L 13.54 12.072 L 13.375 11.972 Z M 21.759 18.402 L 21.593 18.302 L 21.759 18.402 Z M 21.722 18.48 L 21.905 18.543 L 21.722 18.48 Z M 26.938 21.558 L 26.745 21.558 L 26.938 21.558 Z M 21.796 18.322 L 21.98 18.382 L 21.796 18.322 Z M 20.562 14.654 L 20.494 14.836 L 20.562 14.654 Z M 26.938 33.451 L 27.131 33.451 L 26.938 33.451 Z M 16.729 12.691 L 16.547 12.624 L 16.729 12.691 Z M 17.035 13.35 L 17.102 13.169 L 17.035 13.35 Z M 12.914 20.498 L 12.915 20.691 L 12.914 20.498 Z M 11.71 16.131 L 11.773 16.314 L 11.71 16.131 Z M 13.938 12.092 L 13.761 12.015 L 13.938 12.092 Z M 13.914 12.033 L 13.839 12.211 L 13.914 12.033 Z M 5.205 23.003 L 5.387 23.067 L 5.205 23.003 Z M 13.96 16.345 L 13.782 16.419 L 13.96 16.345 Z M 5.206 23.001 L 5.391 23.059 L 5.206 23.001 Z M 22.154 19.715 L 22.345 19.689 C 22.299 19.36 22.336 19.024 22.449 18.713 L 22.267 18.647 L 22.085 18.581 C 21.951 18.951 21.908 19.35 21.962 19.742 L 22.154 19.715 Z M 22.267 18.647 L 22.449 18.712 L 22.483 18.618 L 22.301 18.553 L 22.119 18.487 L 22.085 18.582 L 22.267 18.647 Z M 22.301 18.553 L 22.483 18.616 C 22.727 17.916 22.64 17.141 22.242 16.514 L 22.079 16.618 L 21.915 16.721 C 22.25 17.248 22.324 17.899 22.118 18.489 L 22.301 18.553 Z M 22.079 16.618 L 22.242 16.514 C 21.866 15.92 21.233 15.537 20.533 15.481 L 20.517 15.673 L 20.502 15.866 C 21.081 15.913 21.604 16.229 21.915 16.721 L 22.079 16.618 Z M 20.517 15.673 L 20.532 15.481 C 20.213 15.457 19.894 15.497 19.591 15.596 L 19.651 15.78 L 19.711 15.963 C 19.967 15.88 20.236 15.846 20.503 15.866 L 20.517 15.673 Z M 19.651 15.78 L 19.59 15.596 C 19.021 15.787 18.554 16.201 18.295 16.742 L 18.469 16.826 L 18.644 16.909 C 18.858 16.462 19.244 16.12 19.713 15.963 L 19.651 15.78 Z M 18.469 16.826 L 18.296 16.741 C 18.016 17.314 17.977 17.976 18.185 18.577 L 18.368 18.514 L 18.55 18.451 C 18.376 17.946 18.408 17.391 18.643 16.911 L 18.469 16.826 Z M 18.368 18.514 L 18.185 18.577 L 18.241 18.739 L 18.424 18.676 L 18.606 18.614 L 18.551 18.451 L 18.368 18.514 Z M 18.424 18.676 L 18.24 18.738 C 18.342 19.038 18.374 19.357 18.338 19.671 L 18.53 19.693 L 18.722 19.716 C 18.764 19.345 18.726 18.97 18.607 18.615 L 18.424 18.676 Z M 18.53 19.693 L 18.338 19.667 C 18.29 20.017 17.991 20.277 17.641 20.278 L 17.641 20.471 L 17.642 20.664 C 18.185 20.662 18.646 20.261 18.721 19.72 L 18.53 19.693 Z M 17.641 20.471 L 17.641 20.278 L 14.506 20.278 L 14.506 20.471 L 14.506 20.664 L 17.641 20.664 L 17.641 20.471 Z M 13.991 19.956 L 14.184 19.956 L 14.184 16.513 L 13.991 16.513 L 13.798 16.513 L 13.798 19.956 L 13.991 19.956 Z M 13.96 16.345 L 14.139 16.271 C 13.914 15.728 13.415 15.344 12.828 15.271 L 12.804 15.462 L 12.781 15.654 C 13.228 15.71 13.609 16.003 13.782 16.419 L 13.96 16.345 Z M 12.804 15.462 L 12.829 15.271 C 12.372 15.212 11.91 15.263 11.476 15.416 L 11.54 15.598 L 11.604 15.78 C 11.982 15.647 12.384 15.603 12.78 15.654 L 12.804 15.462 Z M 11.54 15.598 L 11.478 15.415 L 11.312 15.471 L 11.374 15.654 L 11.436 15.837 L 11.602 15.781 L 11.54 15.598 Z M 11.374 15.654 L 11.311 15.471 C 10.949 15.595 10.553 15.572 10.208 15.405 L 10.124 15.579 L 10.04 15.753 C 10.477 15.964 10.978 15.994 11.436 15.837 L 11.374 15.654 Z M 10.124 15.579 L 10.209 15.406 C 9.902 15.254 9.665 14.983 9.555 14.656 L 9.371 14.717 L 9.188 14.779 C 9.331 15.204 9.638 15.555 10.039 15.752 L 10.124 15.579 Z M 9.371 14.717 L 9.555 14.655 C 9.505 14.509 9.479 14.358 9.479 14.204 L 9.286 14.204 L 9.093 14.204 C 9.093 14.401 9.126 14.594 9.188 14.779 L 9.371 14.717 Z M 9.286 14.204 L 9.479 14.204 L 9.479 14.071 L 9.286 14.071 L 9.093 14.071 L 9.093 14.204 L 9.286 14.204 Z M 9.286 14.071 L 9.093 14.071 L 9.093 14.072 L 9.286 14.072 L 9.479 14.072 L 9.479 14.071 L 9.286 14.071 Z M 9.286 14.072 L 9.479 14.089 C 9.515 13.685 9.735 13.32 10.074 13.101 L 9.97 12.939 L 9.865 12.776 C 9.425 13.06 9.14 13.533 9.094 14.055 L 9.286 14.072 Z M 9.97 12.939 L 10.074 13.102 C 10.45 12.861 10.915 12.808 11.335 12.958 L 11.4 12.777 L 11.466 12.595 C 10.933 12.403 10.342 12.471 9.866 12.776 L 9.97 12.939 Z M 11.4 12.777 L 11.342 12.961 L 11.437 12.991 L 11.494 12.806 L 11.552 12.622 L 11.458 12.592 L 11.4 12.777 Z M 11.494 12.806 L 11.428 12.988 C 11.884 13.153 12.373 13.205 12.852 13.141 L 12.826 12.949 L 12.801 12.758 C 12.383 12.814 11.957 12.769 11.56 12.624 L 11.494 12.806 Z M 12.826 12.949 L 12.856 13.14 C 13.416 13.054 13.89 12.686 14.115 12.17 L 13.938 12.092 L 13.761 12.015 C 13.588 12.411 13.225 12.692 12.797 12.758 L 12.826 12.949 Z M 13.978 11.898 L 14.171 11.898 L 14.171 7.549 L 13.978 7.549 L 13.784 7.549 L 13.784 11.898 L 13.978 11.898 Z M 13.462 7.033 L 13.462 6.84 L 0.515 6.84 L 0.515 7.033 L 0.515 7.226 L 13.462 7.226 L 13.462 7.033 Z M 0 7.549 L -0.193 7.549 L -0.193 34.018 L 0 34.018 L 0.193 34.018 L 0.193 7.549 L 0 7.549 Z M 0.515 34.533 L 0.515 34.726 L 26.987 34.726 L 26.987 34.533 L 26.987 34.34 L 0.515 34.34 L 0.515 34.533 Z M 27.502 34.018 L 27.695 34.018 L 27.695 21.006 L 27.502 21.006 L 27.309 21.006 L 27.309 34.018 L 27.502 34.018 Z M 26.987 20.49 L 26.987 20.297 L 23.049 20.297 L 23.049 20.49 L 23.049 20.683 L 26.987 20.683 L 26.987 20.49 Z M 23.049 20.49 L 23.048 20.297 C 22.697 20.299 22.396 20.04 22.345 19.688 L 22.154 19.715 L 21.962 19.743 C 22.041 20.285 22.504 20.687 23.05 20.683 L 23.049 20.49 Z M 1.08 7.585 L 1.08 7.778 L 12.911 7.778 L 12.911 7.585 L 12.911 7.392 L 1.08 7.392 L 1.08 7.585 Z M 13.426 8.101 L 13.233 8.101 L 13.233 11.763 L 13.426 11.763 L 13.62 11.763 L 13.62 8.101 L 13.426 8.101 Z M 13.375 11.972 L 13.21 11.871 C 13.102 12.048 12.921 12.171 12.714 12.204 L 12.744 12.395 L 12.774 12.586 C 13.094 12.535 13.374 12.345 13.54 12.072 L 13.375 11.972 Z M 12.744 12.395 L 12.718 12.203 C 12.389 12.248 12.054 12.213 11.741 12.099 L 11.675 12.281 L 11.61 12.463 C 11.982 12.597 12.379 12.639 12.77 12.586 L 12.744 12.395 Z M 11.675 12.281 L 11.748 12.102 L 11.647 12.061 L 11.574 12.24 L 11.501 12.419 L 11.603 12.46 L 11.675 12.281 Z M 11.574 12.24 L 11.638 12.057 C 10.941 11.812 10.17 11.902 9.547 12.3 L 9.651 12.463 L 9.755 12.625 C 10.278 12.291 10.925 12.216 11.51 12.422 L 11.574 12.24 Z M 9.651 12.463 L 9.547 12.3 C 8.952 12.679 8.568 13.317 8.513 14.024 L 8.706 14.039 L 8.898 14.054 C 8.944 13.468 9.262 12.94 9.755 12.626 L 9.651 12.463 Z M 8.706 14.039 L 8.512 14.039 L 8.512 14.205 L 8.706 14.205 L 8.899 14.205 L 8.899 14.039 L 8.706 14.039 Z M 8.706 14.205 L 8.899 14.205 L 8.899 14.204 L 8.706 14.204 L 8.512 14.204 L 8.512 14.205 L 8.706 14.205 Z M 8.706 14.204 L 8.512 14.204 C 8.512 14.461 8.554 14.718 8.636 14.961 L 8.819 14.899 L 9.002 14.837 C 8.934 14.635 8.899 14.419 8.899 14.204 L 8.706 14.204 Z M 8.819 14.899 L 8.635 14.96 C 8.825 15.53 9.237 15.999 9.777 16.259 L 9.861 16.085 L 9.945 15.911 C 9.5 15.696 9.159 15.309 9.002 14.838 L 8.819 14.899 Z M 9.861 16.085 L 9.776 16.259 C 10.347 16.54 11.007 16.578 11.608 16.37 L 11.545 16.187 L 11.481 16.005 C 10.977 16.18 10.425 16.147 9.946 15.912 L 9.861 16.085 Z M 11.545 16.187 L 11.606 16.37 L 11.772 16.315 L 11.71 16.131 L 11.648 15.948 L 11.483 16.004 L 11.545 16.187 Z M 11.71 16.131 L 11.773 16.314 C 12.07 16.211 12.387 16.178 12.698 16.217 L 12.722 16.025 L 12.746 15.833 C 12.376 15.787 11.999 15.827 11.647 15.948 L 11.71 16.131 Z M 12.722 16.025 L 12.696 16.216 C 12.919 16.246 13.111 16.383 13.215 16.581 L 13.386 16.491 L 13.557 16.401 C 13.396 16.094 13.096 15.88 12.748 15.833 L 12.722 16.025 Z M 13.427 16.677 L 13.233 16.677 L 13.233 19.982 L 13.427 19.982 L 13.62 19.982 L 13.62 16.677 L 13.427 16.677 Z M 12.914 20.498 L 12.913 20.304 L 9.863 20.321 L 9.864 20.514 L 9.865 20.707 L 12.915 20.691 L 12.914 20.498 Z M 9.86 20.512 L 9.86 20.319 C 9.031 20.321 8.331 20.938 8.221 21.76 L 8.413 21.786 L 8.605 21.812 C 8.689 21.18 9.226 20.707 9.861 20.706 L 9.86 20.512 Z M 8.413 21.786 L 8.221 21.766 C 8.172 22.224 8.227 22.687 8.381 23.12 L 8.563 23.055 L 8.745 22.99 C 8.611 22.612 8.563 22.207 8.605 21.806 L 8.413 21.786 Z M 8.563 23.055 L 8.38 23.117 L 8.436 23.283 L 8.619 23.222 L 8.802 23.16 L 8.746 22.994 L 8.563 23.055 Z M 8.619 23.222 L 8.436 23.285 C 8.562 23.648 8.537 24.047 8.37 24.392 L 8.544 24.476 L 8.718 24.561 C 8.93 24.124 8.961 23.619 8.801 23.159 L 8.619 23.222 Z M 8.544 24.476 L 8.37 24.392 C 8.22 24.701 7.952 24.939 7.627 25.049 L 7.69 25.232 L 7.752 25.415 C 8.174 25.271 8.523 24.963 8.718 24.56 L 8.544 24.476 Z M 7.69 25.232 L 7.63 25.048 C 7.445 25.108 7.251 25.132 7.056 25.119 L 7.043 25.312 L 7.03 25.504 C 7.273 25.521 7.517 25.491 7.749 25.416 L 7.69 25.232 Z M 7.043 25.312 L 7.059 25.119 C 6.656 25.086 6.292 24.864 6.077 24.521 L 5.914 24.624 L 5.75 24.726 C 6.029 25.172 6.503 25.461 7.027 25.504 L 7.043 25.312 Z M 5.914 24.624 L 6.076 24.519 C 5.834 24.143 5.78 23.675 5.93 23.252 L 5.747 23.188 L 5.565 23.124 C 5.376 23.658 5.443 24.251 5.751 24.729 L 5.914 24.624 Z M 5.747 23.188 L 5.929 23.253 L 5.963 23.159 L 5.781 23.094 L 5.599 23.028 L 5.565 23.123 L 5.747 23.188 Z M 5.781 23.094 L 5.963 23.159 C 6.128 22.702 6.181 22.212 6.12 21.732 L 5.928 21.756 L 5.737 21.781 C 5.79 22.201 5.743 22.629 5.599 23.028 L 5.781 23.094 Z M 5.928 21.756 L 6.12 21.729 C 6.003 20.907 5.3 20.295 4.471 20.297 L 4.471 20.49 L 4.472 20.684 C 5.107 20.682 5.647 21.151 5.737 21.784 L 5.928 21.756 Z M 4.471 20.49 L 4.471 20.297 L 1.08 20.297 L 1.08 20.49 L 1.08 20.684 L 4.471 20.684 L 4.471 20.49 Z M 0.565 19.975 L 0.758 19.975 L 0.758 8.101 L 0.565 8.101 L 0.371 8.101 L 0.371 19.975 L 0.565 19.975 Z M 13.426 30.063 L 13.233 30.063 L 13.233 33.451 L 13.426 33.451 L 13.62 33.451 L 13.62 30.063 L 13.426 30.063 Z M 12.911 33.967 L 12.911 33.773 L 1.08 33.773 L 1.08 33.967 L 1.08 34.16 L 12.911 34.16 L 12.911 33.967 Z M 0.565 33.451 L 0.758 33.451 L 0.758 21.572 L 0.565 21.572 L 0.371 21.572 L 0.371 33.451 L 0.565 33.451 Z M 1.08 21.057 L 1.08 21.25 L 4.452 21.25 L 4.452 21.057 L 4.452 20.864 L 1.08 20.864 L 1.08 21.057 Z M 4.452 21.057 L 4.453 21.25 C 4.809 21.249 5.11 21.511 5.157 21.865 L 5.349 21.839 L 5.54 21.813 C 5.467 21.267 5.001 20.862 4.451 20.864 L 4.452 21.057 Z M 5.349 21.839 L 5.157 21.865 C 5.202 22.194 5.167 22.53 5.054 22.842 L 5.236 22.907 L 5.417 22.973 C 5.552 22.603 5.593 22.204 5.54 21.813 L 5.349 21.839 Z M 5.236 22.907 L 5.051 22.85 L 5.022 22.944 L 5.206 23.001 L 5.391 23.059 L 5.42 22.965 L 5.236 22.907 Z M 5.205 23.003 L 5.022 22.938 C 4.775 23.637 4.863 24.414 5.266 25.038 L 5.428 24.934 L 5.591 24.829 C 5.253 24.306 5.179 23.654 5.387 23.067 L 5.205 23.003 Z M 5.428 24.934 L 5.264 25.036 C 5.638 25.632 6.269 26.017 6.97 26.074 L 6.985 25.881 L 7.001 25.688 C 6.422 25.642 5.901 25.324 5.592 24.831 L 5.428 24.934 Z M 6.985 25.881 L 6.985 26.074 L 7.163 26.074 L 7.163 25.881 L 7.163 25.688 L 6.985 25.688 L 6.985 25.881 Z M 7.163 25.881 L 7.163 26.074 C 7.418 26.074 7.671 26.032 7.913 25.95 L 7.851 25.767 L 7.789 25.584 C 7.587 25.653 7.376 25.688 7.163 25.688 L 7.163 25.881 Z M 7.851 25.767 L 7.912 25.951 C 8.481 25.761 8.949 25.347 9.208 24.804 L 9.033 24.721 L 8.859 24.638 C 8.645 25.087 8.259 25.428 7.79 25.584 L 7.851 25.767 Z M 9.033 24.721 L 9.207 24.806 C 9.485 24.233 9.527 23.574 9.322 22.971 L 9.139 23.033 L 8.956 23.095 C 9.128 23.602 9.093 24.156 8.859 24.637 L 9.033 24.721 Z M 9.139 23.033 L 9.321 22.967 L 9.261 22.8 L 9.079 22.866 L 8.897 22.932 L 8.957 23.099 L 9.139 23.033 Z M 9.079 22.866 L 9.262 22.804 C 9.161 22.507 9.129 22.189 9.165 21.876 L 8.973 21.854 L 8.781 21.831 C 8.738 22.2 8.776 22.576 8.896 22.928 L 9.079 22.866 Z M 8.973 21.854 L 9.164 21.882 C 9.216 21.533 9.515 21.276 9.865 21.277 L 9.865 21.083 L 9.866 20.89 C 9.322 20.888 8.862 21.289 8.782 21.825 L 8.973 21.854 Z M 9.865 21.083 L 9.866 21.277 L 12.913 21.26 L 12.912 21.067 L 12.911 20.874 L 9.864 20.89 L 9.865 21.083 Z M 13.431 21.578 L 13.237 21.58 L 13.262 24.636 L 13.456 24.634 L 13.649 24.632 L 13.624 21.577 L 13.431 21.578 Z M 13.456 24.634 L 13.262 24.634 C 13.262 24.822 13.294 25.009 13.356 25.186 L 13.538 25.122 L 13.721 25.059 C 13.673 24.923 13.649 24.779 13.649 24.634 L 13.456 24.634 Z M 13.538 25.122 L 13.355 25.185 C 13.559 25.777 14.08 26.202 14.7 26.281 L 14.725 26.089 L 14.749 25.897 C 14.275 25.837 13.876 25.513 13.721 25.06 L 13.538 25.122 Z M 14.725 26.089 L 14.703 26.281 C 15.157 26.333 15.618 26.284 16.051 26.136 L 15.989 25.953 L 15.926 25.77 C 15.548 25.9 15.145 25.943 14.746 25.897 L 14.725 26.089 Z M 15.989 25.953 L 16.052 26.136 L 16.213 26.08 L 16.15 25.897 L 16.087 25.715 L 15.926 25.771 L 15.989 25.953 Z M 16.151 25.895 L 16.214 26.078 C 16.576 25.953 16.972 25.977 17.315 26.146 L 17.4 25.972 L 17.486 25.799 C 17.05 25.584 16.547 25.555 16.088 25.713 L 16.151 25.895 Z M 17.4 25.972 L 17.316 26.146 C 17.623 26.296 17.859 26.565 17.97 26.892 L 18.153 26.83 L 18.336 26.767 C 18.192 26.345 17.887 25.994 17.485 25.799 L 17.4 25.972 Z M 18.153 26.83 L 17.969 26.889 C 18.016 27.035 18.041 27.19 18.042 27.345 L 18.236 27.343 L 18.429 27.342 C 18.427 27.148 18.396 26.955 18.337 26.771 L 18.153 26.83 Z M 18.236 27.343 L 18.042 27.343 L 18.042 27.479 L 18.236 27.479 L 18.429 27.479 L 18.429 27.343 L 18.236 27.343 Z M 18.236 27.479 L 18.043 27.464 C 18.011 27.868 17.79 28.234 17.447 28.449 L 17.55 28.613 L 17.653 28.776 C 18.099 28.496 18.387 28.02 18.428 27.494 L 18.236 27.479 Z M 17.55 28.613 L 17.445 28.45 C 17.071 28.693 16.606 28.747 16.185 28.597 L 16.12 28.779 L 16.055 28.961 C 16.589 29.151 17.18 29.084 17.656 28.775 L 17.55 28.613 Z M 16.12 28.779 L 16.185 28.597 L 16.091 28.564 L 16.026 28.745 L 15.96 28.927 L 16.054 28.961 L 16.12 28.779 Z M 16.026 28.745 L 16.091 28.564 C 15.637 28.4 15.15 28.347 14.672 28.414 L 14.698 28.605 L 14.725 28.797 C 15.14 28.739 15.564 28.784 15.96 28.927 L 16.026 28.745 Z M 14.698 28.605 L 14.671 28.414 C 14.09 28.496 13.596 28.878 13.371 29.423 L 13.55 29.496 L 13.729 29.57 C 13.901 29.152 14.28 28.859 14.725 28.797 L 14.698 28.605 Z M 13.55 29.496 L 13.373 29.418 C 13.283 29.621 13.237 29.84 13.233 30.06 L 13.426 30.063 L 13.62 30.066 C 13.622 29.896 13.658 29.729 13.726 29.575 L 13.55 29.496 Z M 26.422 33.967 L 26.422 33.773 L 14.596 33.773 L 14.596 33.967 L 14.596 34.16 L 26.422 34.16 L 26.422 33.967 Z M 14.081 33.451 L 14.274 33.451 L 14.274 29.785 L 14.081 29.785 L 13.887 29.785 L 13.887 33.451 L 14.081 33.451 Z M 14.133 29.576 L 14.297 29.677 C 14.404 29.503 14.584 29.384 14.788 29.356 L 14.761 29.165 L 14.735 28.973 C 14.416 29.017 14.135 29.203 13.968 29.474 L 14.133 29.576 Z M 14.761 29.165 L 14.789 29.356 C 15.116 29.309 15.45 29.344 15.762 29.456 L 15.827 29.274 L 15.893 29.092 C 15.522 28.959 15.124 28.917 14.734 28.973 L 14.761 29.165 Z M 15.827 29.274 L 15.762 29.456 L 15.856 29.49 L 15.921 29.308 L 15.987 29.126 L 15.893 29.092 L 15.827 29.274 Z M 15.921 29.308 L 15.856 29.49 C 16.554 29.74 17.33 29.65 17.954 29.247 L 17.849 29.085 L 17.744 28.923 C 17.221 29.26 16.571 29.336 15.987 29.126 L 15.921 29.308 Z M 17.849 29.085 L 17.953 29.248 C 18.548 28.867 18.93 28.227 18.983 27.52 L 18.79 27.506 L 18.597 27.491 C 18.553 28.077 18.237 28.607 17.745 28.922 L 17.849 29.085 Z M 18.79 27.506 L 18.983 27.506 L 18.983 27.339 L 18.79 27.339 L 18.597 27.339 L 18.597 27.506 L 18.79 27.506 Z M 18.79 27.339 L 18.983 27.339 C 18.983 27.084 18.941 26.83 18.86 26.587 L 18.677 26.649 L 18.493 26.71 C 18.562 26.913 18.597 27.126 18.597 27.339 L 18.79 27.339 Z M 18.677 26.649 L 18.86 26.587 C 18.669 26.017 18.258 25.547 17.719 25.284 L 17.634 25.458 L 17.549 25.631 C 17.995 25.849 18.335 26.238 18.493 26.71 L 18.677 26.649 Z M 17.634 25.458 L 17.719 25.284 C 17.146 25.006 16.489 24.966 15.888 25.173 L 15.951 25.356 L 16.014 25.539 C 16.518 25.365 17.069 25.398 17.55 25.632 L 17.634 25.458 Z M 15.951 25.356 L 15.889 25.173 L 15.724 25.228 L 15.786 25.412 L 15.847 25.595 L 16.013 25.539 L 15.951 25.356 Z M 15.785 25.414 L 15.723 25.231 C 15.425 25.332 15.11 25.367 14.8 25.331 L 14.778 25.523 L 14.755 25.715 C 15.124 25.758 15.496 25.716 15.847 25.597 L 15.785 25.414 Z M 14.778 25.523 L 14.802 25.331 C 14.577 25.302 14.384 25.162 14.283 24.962 L 14.111 25.049 L 13.938 25.135 C 14.095 25.449 14.399 25.669 14.753 25.714 L 14.778 25.523 Z M 14.073 24.87 L 14.267 24.87 L 14.267 21.572 L 14.073 21.572 L 13.88 21.572 L 13.88 24.87 L 14.073 24.87 Z M 14.589 21.057 L 14.589 21.25 L 17.637 21.25 L 17.637 21.057 L 17.637 20.864 L 14.589 20.864 L 14.589 21.057 Z M 17.637 21.057 L 17.635 21.25 C 18.482 21.259 19.195 20.625 19.293 19.784 L 19.102 19.761 L 18.91 19.739 C 18.834 20.385 18.286 20.87 17.639 20.864 L 17.637 21.057 Z M 19.102 19.761 L 19.293 19.785 C 19.35 19.328 19.301 18.864 19.152 18.429 L 18.969 18.492 L 18.786 18.555 C 18.917 18.935 18.959 19.339 18.91 19.738 L 19.102 19.761 Z M 18.969 18.492 L 19.15 18.425 L 19.09 18.263 L 18.909 18.33 L 18.728 18.397 L 18.788 18.559 L 18.969 18.492 Z M 18.909 18.33 L 19.092 18.268 C 18.969 17.904 18.993 17.505 19.162 17.16 L 18.988 17.075 L 18.815 16.991 C 18.601 17.428 18.57 17.932 18.726 18.392 L 18.909 18.33 Z M 18.988 17.075 L 19.163 17.159 C 19.311 16.848 19.578 16.612 19.904 16.503 L 19.842 16.32 L 19.781 16.137 C 19.357 16.279 19.007 16.586 18.814 16.992 L 18.988 17.075 Z M 19.842 16.32 L 19.902 16.504 C 20.087 16.444 20.283 16.42 20.478 16.433 L 20.491 16.24 L 20.504 16.047 C 20.261 16.031 20.015 16.06 19.783 16.136 L 19.842 16.32 Z M 20.491 16.24 L 20.473 16.433 C 20.875 16.47 21.238 16.691 21.457 17.032 L 21.62 16.928 L 21.783 16.823 C 21.499 16.383 21.03 16.096 20.509 16.048 L 20.491 16.24 Z M 21.62 16.928 L 21.457 17.032 C 21.69 17.398 21.747 17.85 21.612 18.262 L 21.796 18.322 L 21.98 18.382 C 22.15 17.86 22.078 17.288 21.783 16.824 L 21.62 16.928 Z M 21.722 18.48 L 21.539 18.417 C 21.386 18.862 21.34 19.337 21.405 19.803 L 21.597 19.776 L 21.788 19.749 C 21.731 19.344 21.771 18.931 21.905 18.543 L 21.722 18.48 Z M 21.597 19.776 L 21.405 19.803 C 21.521 20.624 22.223 21.236 23.049 21.236 L 23.049 21.042 L 23.049 20.849 C 22.417 20.849 21.877 20.38 21.788 19.749 L 21.597 19.776 Z M 23.049 21.042 L 23.049 21.236 L 26.422 21.236 L 26.422 21.042 L 26.422 20.849 L 23.049 20.849 L 23.049 21.042 Z M 26.938 21.558 L 26.745 21.558 L 26.745 33.451 L 26.938 33.451 L 27.131 33.451 L 27.131 21.558 L 26.938 21.558 Z M 21.219 0.484 L 21.038 0.418 L 19.673 4.126 L 19.854 4.193 L 20.035 4.259 L 21.401 0.551 L 21.219 0.484 Z M 19.854 4.193 L 19.673 4.126 C 19.551 4.46 19.204 4.652 18.86 4.578 L 18.819 4.767 L 18.778 4.956 C 19.313 5.07 19.848 4.772 20.036 4.259 L 19.854 4.193 Z M 18.819 4.767 L 18.861 4.578 C 18.537 4.507 18.235 4.357 17.98 4.143 L 17.856 4.292 L 17.732 4.44 C 18.033 4.693 18.392 4.87 18.777 4.955 L 18.819 4.767 Z M 17.856 4.292 L 17.983 4.145 L 17.908 4.081 L 17.782 4.227 L 17.655 4.373 L 17.73 4.438 L 17.856 4.292 Z M 17.779 4.226 L 17.903 4.078 C 17.335 3.603 16.579 3.418 15.856 3.577 L 15.898 3.766 L 15.939 3.955 C 16.545 3.822 17.179 3.976 17.655 4.374 L 17.779 4.226 Z M 15.898 3.766 L 15.858 3.577 C 15.173 3.723 14.597 4.183 14.301 4.818 L 14.476 4.899 L 14.651 4.981 C 14.896 4.456 15.373 4.075 15.938 3.955 L 15.898 3.766 Z M 14.476 4.899 L 14.303 4.813 C 14.272 4.875 14.247 4.939 14.225 4.993 L 14.404 5.066 L 14.583 5.139 C 14.608 5.078 14.627 5.031 14.649 4.986 L 14.476 4.899 Z M 14.404 5.066 L 14.222 5.001 C 14.136 5.24 14.088 5.492 14.08 5.748 L 14.273 5.754 L 14.466 5.76 C 14.473 5.544 14.513 5.332 14.586 5.132 L 14.404 5.066 Z M 14.273 5.754 L 14.08 5.748 C 14.062 6.347 14.286 6.93 14.701 7.363 L 14.841 7.23 L 14.98 7.096 C 14.637 6.738 14.452 6.255 14.466 5.76 L 14.273 5.754 Z M 14.841 7.23 L 14.701 7.363 C 15.141 7.824 15.745 8.09 16.38 8.103 L 16.384 7.91 L 16.388 7.717 C 15.856 7.706 15.349 7.483 14.98 7.096 L 14.841 7.23 Z M 16.384 7.91 L 16.384 8.103 L 16.558 8.103 L 16.558 7.91 L 16.558 7.717 L 16.384 7.717 L 16.384 7.91 Z M 16.558 7.91 L 16.558 7.717 L 16.556 7.717 L 16.556 7.91 L 16.556 8.103 L 16.558 8.103 L 16.558 7.91 Z M 16.556 7.91 L 16.551 8.103 C 16.867 8.111 17.175 8.19 17.456 8.332 L 17.543 8.159 L 17.63 7.987 C 17.299 7.819 16.934 7.726 16.561 7.717 L 16.556 7.91 Z M 17.543 8.159 L 17.454 8.331 C 17.773 8.496 17.918 8.874 17.791 9.21 L 17.972 9.278 L 18.153 9.346 C 18.349 8.826 18.124 8.242 17.632 7.988 L 17.543 8.159 Z M 17.972 9.278 L 17.791 9.212 L 16.547 12.624 L 16.729 12.691 L 16.911 12.757 L 18.154 9.344 L 17.972 9.278 Z M 17.035 13.35 L 16.968 13.532 L 20.494 14.836 L 20.562 14.654 L 20.629 14.473 L 17.102 13.169 L 17.035 13.35 Z M 20.879 14.509 L 20.693 14.457 L 20.641 14.641 L 20.827 14.694 L 21.012 14.747 L 21.065 14.562 L 20.879 14.509 Z M 20.867 14.747 L 20.867 14.94 L 20.908 14.94 L 20.908 14.747 L 20.908 14.554 L 20.867 14.554 L 20.867 14.747 Z M 20.909 14.749 L 20.908 14.942 C 21.522 14.947 22.086 14.605 22.371 14.06 L 22.199 13.971 L 22.028 13.881 C 21.81 14.298 21.378 14.559 20.911 14.555 L 20.909 14.749 Z M 22.199 13.971 L 22.372 14.058 C 22.579 13.647 22.693 13.196 22.704 12.736 L 22.511 12.731 L 22.318 12.727 C 22.308 13.128 22.208 13.524 22.027 13.884 L 22.199 13.971 Z M 22.511 12.731 L 22.704 12.731 L 22.704 12.554 L 22.511 12.554 L 22.318 12.554 L 22.318 12.731 L 22.511 12.731 Z M 22.511 12.554 L 22.704 12.561 C 22.717 12.18 22.877 11.822 23.149 11.56 L 23.015 11.421 L 22.881 11.281 C 22.536 11.613 22.334 12.067 22.318 12.548 L 22.511 12.554 Z M 23.015 11.421 L 23.149 11.56 C 23.397 11.321 23.73 11.192 24.072 11.201 L 24.077 11.008 L 24.082 10.814 C 23.636 10.803 23.203 10.971 22.881 11.282 L 23.015 11.421 Z M 24.077 11.008 L 24.072 11.201 C 24.225 11.205 24.378 11.234 24.521 11.288 L 24.588 11.106 L 24.656 10.925 C 24.473 10.857 24.278 10.819 24.082 10.814 L 24.077 11.008 Z M 24.588 11.106 L 24.51 11.283 L 24.631 11.336 L 24.709 11.16 L 24.787 10.983 L 24.666 10.93 L 24.588 11.106 Z M 24.709 11.16 L 24.628 11.335 C 24.994 11.504 25.258 11.837 25.34 12.233 L 25.529 12.194 L 25.719 12.155 C 25.612 11.639 25.268 11.205 24.79 10.984 L 24.709 11.16 Z M 25.529 12.194 L 25.341 12.235 C 25.437 12.674 25.325 13.132 25.039 13.477 L 25.188 13.6 L 25.337 13.724 C 25.698 13.287 25.84 12.708 25.718 12.153 L 25.529 12.194 Z M 25.188 13.6 L 25.037 13.48 L 24.977 13.555 L 25.128 13.676 L 25.279 13.797 L 25.339 13.721 L 25.188 13.6 Z M 25.128 13.676 L 24.98 13.551 C 24.667 13.924 24.449 14.367 24.344 14.843 L 24.533 14.884 L 24.721 14.926 C 24.813 14.511 25.003 14.124 25.276 13.8 L 25.128 13.676 Z M 24.533 14.884 L 24.343 14.844 C 24.225 15.404 24.403 15.986 24.81 16.383 L 24.945 16.245 L 25.08 16.106 C 24.767 15.801 24.631 15.354 24.722 14.924 L 24.533 14.884 Z M 25.103 16.346 L 25.036 16.527 L 29.117 18.037 L 29.184 17.856 L 29.251 17.675 L 25.17 16.165 L 25.103 16.346 Z M 29.847 17.551 L 30.028 17.618 L 34.536 5.411 L 34.355 5.344 L 34.173 5.277 L 29.665 17.484 L 29.847 17.551 Z M 34.05 4.683 L 34.117 4.501 L 21.949 -0.002 L 21.882 0.179 L 21.815 0.36 L 33.983 4.864 L 34.05 4.683 Z M 28.858 17.127 L 28.925 16.945 L 25.505 15.68 L 25.438 15.861 L 25.371 16.042 L 28.791 17.308 L 28.858 17.127 Z M 25.256 15.735 L 25.409 15.618 C 25.284 15.455 25.235 15.244 25.279 15.041 L 25.09 15.001 L 24.901 14.961 C 24.833 15.276 24.91 15.601 25.102 15.853 L 25.256 15.735 Z M 25.09 15.001 L 25.279 15.041 C 25.348 14.717 25.497 14.414 25.712 14.159 L 25.564 14.034 L 25.417 13.91 C 25.161 14.213 24.984 14.573 24.901 14.96 L 25.09 15.001 Z M 25.564 14.034 L 25.711 14.16 L 25.775 14.085 L 25.629 13.96 L 25.482 13.834 L 25.418 13.908 L 25.564 14.034 Z M 25.628 13.958 L 25.777 14.082 C 26.25 13.511 26.433 12.754 26.275 12.029 L 26.086 12.07 L 25.898 12.111 C 26.03 12.72 25.876 13.356 25.479 13.835 L 25.628 13.958 Z M 26.086 12.07 L 26.275 12.03 C 26.129 11.344 25.673 10.764 25.04 10.464 L 24.957 10.639 L 24.874 10.813 C 25.398 11.062 25.776 11.542 25.897 12.11 L 26.086 12.07 Z M 24.957 10.639 L 25.03 10.46 L 24.865 10.392 L 24.792 10.571 L 24.719 10.75 L 24.884 10.817 L 24.957 10.639 Z M 24.792 10.57 L 24.86 10.389 C 24.619 10.299 24.367 10.251 24.112 10.245 L 24.107 10.438 L 24.103 10.631 C 24.315 10.636 24.524 10.677 24.724 10.751 L 24.792 10.57 Z M 24.107 10.438 L 24.115 10.245 C 23.513 10.222 22.931 10.449 22.501 10.869 L 22.636 11.007 L 22.771 11.146 C 23.126 10.799 23.605 10.612 24.1 10.631 L 24.107 10.438 Z M 22.636 11.007 L 22.502 10.868 C 22.043 11.311 21.779 11.916 21.765 12.553 L 21.958 12.557 L 22.151 12.561 C 22.163 12.026 22.385 11.518 22.77 11.147 L 22.636 11.007 Z M 21.958 12.557 L 21.765 12.557 L 21.765 12.731 L 21.958 12.731 L 22.151 12.731 L 22.151 12.557 L 21.958 12.557 Z M 21.958 12.731 L 21.765 12.727 C 21.758 13.043 21.679 13.352 21.535 13.633 L 21.707 13.721 L 21.879 13.81 C 22.049 13.477 22.143 13.11 22.151 12.735 L 21.958 12.731 Z M 21.707 13.721 L 21.537 13.628 C 21.43 13.823 21.241 13.954 21.026 13.988 L 21.057 14.179 L 21.087 14.37 C 21.419 14.317 21.711 14.114 21.876 13.815 L 21.707 13.721 Z M 20.857 14.153 L 20.924 13.972 L 17.846 12.834 L 17.779 13.015 L 17.711 13.196 L 20.79 14.335 L 20.857 14.153 Z M 17.473 12.356 L 17.654 12.422 L 18.696 9.537 L 18.515 9.471 L 18.333 9.406 L 17.291 12.291 L 17.473 12.356 Z M 18.515 9.471 L 18.696 9.538 C 18.981 8.758 18.648 7.887 17.916 7.497 L 17.825 7.668 L 17.734 7.839 C 18.296 8.137 18.552 8.806 18.333 9.405 L 18.515 9.471 Z M 17.825 7.668 L 17.914 7.496 C 17.505 7.285 17.054 7.171 16.594 7.162 L 16.59 7.355 L 16.586 7.548 C 16.988 7.557 17.381 7.656 17.736 7.84 L 17.825 7.668 Z M 16.59 7.355 L 16.59 7.162 L 16.417 7.162 L 16.417 7.355 L 16.417 7.548 L 16.59 7.548 L 16.59 7.355 Z M 16.417 7.355 L 16.417 7.548 L 16.418 7.548 L 16.418 7.355 L 16.418 7.162 L 16.417 7.162 L 16.417 7.355 Z M 16.418 7.355 L 16.423 7.162 C 16.046 7.152 15.689 6.991 15.43 6.716 L 15.289 6.849 L 15.148 6.982 C 15.478 7.33 15.932 7.535 16.413 7.548 L 16.418 7.355 Z M 15.289 6.849 L 15.428 6.715 C 15.189 6.467 15.059 6.134 15.068 5.789 L 14.874 5.784 L 14.681 5.779 C 14.67 6.227 14.839 6.661 15.15 6.983 L 15.289 6.849 Z M 14.874 5.784 L 15.068 5.788 C 15.071 5.653 15.093 5.519 15.135 5.392 L 14.951 5.332 L 14.767 5.272 C 14.714 5.436 14.685 5.607 14.681 5.779 L 14.874 5.784 Z M 14.993 5.208 L 15.164 5.298 C 15.168 5.29 15.171 5.286 15.179 5.271 C 15.186 5.259 15.196 5.24 15.205 5.219 L 15.026 5.147 L 14.846 5.074 C 14.847 5.071 14.847 5.072 14.842 5.082 C 14.84 5.086 14.838 5.09 14.834 5.096 C 14.831 5.102 14.827 5.109 14.823 5.117 L 14.993 5.208 Z M 15.026 5.144 L 15.201 5.226 C 15.372 4.861 15.706 4.597 16.1 4.515 L 16.061 4.325 L 16.022 4.136 C 15.508 4.243 15.074 4.587 14.851 5.062 L 15.026 5.144 Z M 16.061 4.325 L 16.102 4.514 C 16.536 4.419 16.99 4.53 17.333 4.814 L 17.456 4.665 L 17.579 4.516 C 17.146 4.156 16.57 4.016 16.02 4.137 L 16.061 4.325 Z M 17.456 4.665 L 17.33 4.811 L 17.405 4.876 L 17.531 4.73 L 17.658 4.584 L 17.583 4.519 L 17.456 4.665 Z M 17.531 4.73 L 17.407 4.878 C 17.779 5.19 18.22 5.409 18.695 5.515 L 18.737 5.326 L 18.779 5.137 C 18.365 5.045 17.98 4.854 17.655 4.582 L 17.531 4.73 Z M 18.737 5.326 L 18.697 5.515 C 19.506 5.686 20.315 5.236 20.604 4.461 L 20.423 4.393 L 20.242 4.326 C 20.019 4.923 19.397 5.268 18.777 5.137 L 18.737 5.326 Z M 20.423 4.393 L 20.605 4.459 L 21.742 1.286 L 21.56 1.221 L 21.378 1.155 L 20.241 4.328 L 20.423 4.393 Z M 22.225 0.911 L 22.158 1.092 L 33.232 5.219 L 33.3 5.038 L 33.367 4.857 L 22.293 0.73 L 22.225 0.911 Z M 33.603 5.698 L 33.422 5.632 L 29.34 16.754 L 29.521 16.821 L 29.702 16.887 L 33.785 5.765 L 33.603 5.698 Z M 33.3 5.038 L 33.232 5.219 C 33.398 5.281 33.483 5.465 33.422 5.632 L 33.603 5.698 L 33.785 5.765 C 33.919 5.399 33.733 4.993 33.367 4.857 L 33.3 5.038 Z M 21.56 1.221 L 21.742 1.286 C 21.802 1.117 21.989 1.03 22.158 1.092 L 22.225 0.911 L 22.293 0.73 C 21.923 0.592 21.511 0.784 21.378 1.155 L 21.56 1.221 Z M 15.026 5.145 L 15.219 5.145 C 15.219 5.173 15.213 5.201 15.201 5.226 L 15.026 5.144 L 14.851 5.062 C 14.839 5.088 14.833 5.116 14.833 5.145 L 15.026 5.145 Z M 15.026 5.147 L 15.205 5.219 C 15.215 5.195 15.219 5.17 15.219 5.145 L 15.026 5.145 L 14.833 5.145 C 14.833 5.122 14.837 5.098 14.846 5.074 L 15.026 5.147 Z M 14.951 5.332 L 15.135 5.392 C 15.142 5.37 15.152 5.333 15.155 5.324 C 15.16 5.307 15.163 5.301 15.164 5.298 L 14.993 5.208 L 14.823 5.117 C 14.803 5.153 14.792 5.189 14.784 5.214 C 14.774 5.248 14.774 5.253 14.767 5.272 L 14.951 5.332 Z M 17.779 13.015 L 17.846 12.834 C 17.68 12.772 17.594 12.588 17.654 12.422 L 17.473 12.356 L 17.291 12.291 C 17.159 12.657 17.346 13.061 17.711 13.196 L 17.779 13.015 Z M 21.057 14.179 L 21.026 13.988 C 21.002 13.992 20.968 13.988 20.924 13.972 L 20.857 14.153 L 20.79 14.335 C 20.873 14.365 20.976 14.387 21.087 14.37 L 21.057 14.179 Z M 24.792 10.571 L 24.792 10.764 C 25.009 10.764 25.059 10.464 24.86 10.389 L 24.792 10.57 L 24.724 10.751 C 24.525 10.677 24.575 10.377 24.792 10.377 L 24.792 10.571 Z M 24.792 10.571 L 24.865 10.392 C 25.061 10.472 25.004 10.764 24.792 10.764 L 24.792 10.571 L 24.792 10.377 C 24.58 10.377 24.522 10.67 24.719 10.75 L 24.792 10.571 Z M 25.628 13.959 L 25.628 13.766 C 25.793 13.766 25.88 13.957 25.777 14.082 L 25.628 13.958 L 25.479 13.835 C 25.376 13.96 25.463 14.152 25.628 14.152 L 25.628 13.959 Z M 25.629 13.96 L 25.775 14.085 C 25.883 13.96 25.794 13.766 25.628 13.766 L 25.628 13.959 L 25.628 14.152 C 25.463 14.152 25.375 13.959 25.482 13.834 L 25.629 13.96 Z M 25.438 15.861 L 25.505 15.68 C 25.456 15.661 25.426 15.639 25.409 15.618 L 25.256 15.735 L 25.102 15.853 C 25.177 15.951 25.279 16.008 25.371 16.042 L 25.438 15.861 Z M 28.858 17.127 L 28.791 17.308 C 29.159 17.444 29.567 17.255 29.702 16.887 L 29.521 16.821 L 29.34 16.754 C 29.278 16.921 29.092 17.007 28.925 16.945 L 28.858 17.127 Z M 34.355 5.344 L 34.536 5.411 C 34.672 5.044 34.484 4.637 34.117 4.501 L 34.05 4.683 L 33.983 4.864 C 34.15 4.925 34.235 5.111 34.173 5.277 L 34.355 5.344 Z M 20.908 14.748 L 20.715 14.748 C 20.715 14.855 20.802 14.941 20.908 14.942 L 20.909 14.749 L 20.911 14.555 C 21.016 14.556 21.102 14.641 21.102 14.748 L 20.908 14.748 Z M 9.862 20.513 L 9.999 20.377 C 9.962 20.34 9.911 20.319 9.86 20.319 L 9.86 20.512 L 9.861 20.706 C 9.81 20.706 9.761 20.686 9.725 20.65 L 9.862 20.513 Z M 20.908 14.747 L 20.908 14.94 C 20.801 14.94 20.715 14.854 20.715 14.748 L 20.908 14.748 L 21.102 14.748 C 21.102 14.641 21.015 14.554 20.908 14.554 L 20.908 14.747 Z M 17.78 4.227 L 17.78 4.033 C 17.825 4.033 17.869 4.049 17.903 4.078 L 17.779 4.226 L 17.655 4.374 C 17.69 4.404 17.734 4.42 17.78 4.42 L 17.78 4.227 Z M 17.782 4.227 L 17.908 4.081 C 17.873 4.05 17.827 4.033 17.78 4.033 L 17.78 4.227 L 17.78 4.42 C 17.734 4.42 17.69 4.403 17.655 4.373 L 17.782 4.227 Z M 15.785 25.413 L 15.648 25.549 C 15.548 25.448 15.588 25.277 15.723 25.231 L 15.785 25.414 L 15.847 25.597 C 15.983 25.551 16.024 25.378 15.922 25.276 L 15.785 25.413 Z M 9.864 20.514 L 9.863 20.321 C 9.914 20.32 9.963 20.341 9.999 20.377 L 9.862 20.513 L 9.725 20.65 C 9.762 20.687 9.812 20.708 9.865 20.707 L 9.864 20.514 Z M 20.827 14.694 L 20.641 14.641 C 20.598 14.791 20.711 14.94 20.867 14.94 L 20.867 14.747 L 20.867 14.554 C 20.967 14.554 21.04 14.65 21.012 14.747 L 20.827 14.694 Z M 14.081 29.785 L 14.274 29.785 C 14.274 29.734 14.284 29.699 14.297 29.677 L 14.133 29.576 L 13.968 29.474 C 13.905 29.577 13.887 29.69 13.887 29.785 L 14.081 29.785 Z M 14.596 33.967 L 14.596 33.773 C 14.418 33.773 14.274 33.629 14.274 33.451 L 14.081 33.451 L 13.887 33.451 C 13.887 33.842 14.205 34.16 14.596 34.16 L 14.596 33.967 Z M 16.151 25.896 L 16.344 25.896 C 16.344 25.979 16.292 26.052 16.214 26.078 L 16.151 25.895 L 16.088 25.713 C 16.01 25.74 15.957 25.813 15.957 25.896 L 16.151 25.896 Z M 16.15 25.897 L 16.213 26.08 C 16.292 26.053 16.344 25.979 16.344 25.896 L 16.151 25.896 L 15.957 25.896 C 15.957 25.815 16.009 25.742 16.087 25.715 L 16.15 25.897 Z M 12.912 21.067 L 12.913 21.26 C 13.091 21.259 13.236 21.402 13.237 21.58 L 13.431 21.578 L 13.624 21.577 C 13.621 21.186 13.302 20.872 12.911 20.874 L 12.912 21.067 Z M 24.945 16.245 L 24.81 16.383 C 24.908 16.478 25.061 16.468 25.148 16.373 L 25.006 16.242 L 24.863 16.112 C 24.918 16.052 25.016 16.044 25.08 16.106 L 24.945 16.245 Z M 14.073 21.572 L 14.267 21.572 C 14.267 21.394 14.411 21.25 14.589 21.25 L 14.589 21.057 L 14.589 20.864 C 14.197 20.864 13.88 21.181 13.88 21.572 L 14.073 21.572 Z M 29.184 17.856 L 29.117 18.037 C 29.484 18.173 29.892 17.985 30.028 17.618 L 29.847 17.551 L 29.665 17.484 C 29.604 17.651 29.418 17.736 29.251 17.675 L 29.184 17.856 Z M 0.565 21.572 L 0.758 21.572 C 0.758 21.394 0.902 21.25 1.08 21.25 L 1.08 21.057 L 1.08 20.864 C 0.689 20.864 0.371 21.181 0.371 21.572 L 0.565 21.572 Z M 14.111 25.049 L 14.283 24.962 C 14.273 24.942 14.267 24.913 14.267 24.87 L 14.073 24.87 L 13.88 24.87 C 13.88 24.95 13.892 25.045 13.938 25.135 L 14.111 25.049 Z M 25.078 16.289 L 24.897 16.22 C 24.851 16.341 24.911 16.481 25.036 16.527 L 25.103 16.346 L 25.17 16.165 C 25.25 16.194 25.287 16.282 25.258 16.358 L 25.078 16.289 Z M 1.08 33.967 L 1.08 33.773 C 0.902 33.773 0.758 33.629 0.758 33.451 L 0.565 33.451 L 0.371 33.451 C 0.371 33.842 0.689 34.16 1.08 34.16 L 1.08 33.967 Z M 25.006 16.242 L 25.148 16.373 C 25.091 16.436 25.006 16.43 24.955 16.398 C 24.906 16.366 24.869 16.295 24.897 16.22 L 25.078 16.289 L 25.258 16.358 C 25.304 16.238 25.247 16.126 25.166 16.073 C 25.083 16.02 24.953 16.014 24.863 16.112 L 25.006 16.242 Z M 13.426 33.451 L 13.233 33.451 C 13.233 33.629 13.089 33.773 12.911 33.773 L 12.911 33.967 L 12.911 34.16 C 13.302 34.16 13.62 33.842 13.62 33.451 L 13.426 33.451 Z M 15.786 25.412 L 15.724 25.228 C 15.588 25.274 15.547 25.447 15.648 25.549 L 15.785 25.413 L 15.922 25.276 C 16.023 25.377 15.983 25.549 15.847 25.595 L 15.786 25.412 Z M 1.08 20.49 L 1.08 20.297 C 0.902 20.297 0.758 20.153 0.758 19.975 L 0.565 19.975 L 0.371 19.975 C 0.371 20.366 0.689 20.684 1.08 20.684 L 1.08 20.49 Z M 11.71 16.131 L 11.772 16.315 C 11.979 16.244 11.929 15.938 11.71 15.938 L 11.71 16.131 L 11.71 16.324 C 11.491 16.324 11.441 16.018 11.648 15.948 L 11.71 16.131 Z M 21.219 0.484 L 21.401 0.551 C 21.462 0.384 21.648 0.299 21.815 0.36 L 21.882 0.179 L 21.949 -0.002 C 21.582 -0.138 21.174 0.05 21.038 0.418 L 21.219 0.484 Z M 13.426 11.763 L 13.233 11.763 C 13.233 11.814 13.223 11.849 13.21 11.871 L 13.375 11.972 L 13.54 12.072 C 13.602 11.97 13.62 11.858 13.62 11.763 L 13.426 11.763 Z M 0.515 7.033 L 0.515 6.84 C 0.124 6.84 -0.193 7.157 -0.193 7.549 L 0 7.549 L 0.193 7.549 C 0.193 7.371 0.338 7.226 0.515 7.226 L 0.515 7.033 Z M 21.759 18.402 L 21.593 18.302 C 21.572 18.337 21.553 18.376 21.539 18.417 L 21.722 18.48 L 21.905 18.543 C 21.909 18.53 21.915 18.516 21.924 18.502 L 21.759 18.402 Z M 26.422 21.042 L 26.422 21.236 C 26.6 21.236 26.745 21.38 26.745 21.558 L 26.938 21.558 L 27.131 21.558 C 27.131 21.166 26.814 20.849 26.422 20.849 L 26.422 21.042 Z M 27.502 21.006 L 27.695 21.006 C 27.695 20.614 27.378 20.297 26.987 20.297 L 26.987 20.49 L 26.987 20.683 C 27.165 20.683 27.309 20.828 27.309 21.006 L 27.502 21.006 Z M 13.978 7.549 L 14.171 7.549 C 14.171 7.157 13.854 6.84 13.462 6.84 L 13.462 7.033 L 13.462 7.226 C 13.64 7.226 13.784 7.371 13.784 7.549 L 13.978 7.549 Z M 21.796 18.322 L 21.612 18.262 C 21.609 18.273 21.602 18.287 21.593 18.302 L 21.759 18.402 L 21.924 18.502 C 21.946 18.466 21.965 18.426 21.98 18.382 L 21.796 18.322 Z M 26.987 34.533 L 26.987 34.726 C 27.378 34.726 27.695 34.409 27.695 34.018 L 27.502 34.018 L 27.309 34.018 C 27.309 34.196 27.165 34.34 26.987 34.34 L 26.987 34.533 Z M 13.386 16.491 L 13.215 16.581 C 13.226 16.601 13.233 16.632 13.233 16.677 L 13.427 16.677 L 13.62 16.677 C 13.62 16.593 13.606 16.495 13.557 16.401 L 13.386 16.491 Z M 20.562 14.654 L 20.494 14.836 C 20.722 14.92 20.974 14.804 21.06 14.578 L 20.879 14.509 L 20.698 14.441 C 20.688 14.469 20.657 14.483 20.629 14.473 L 20.562 14.654 Z M 26.422 33.967 L 26.422 34.16 C 26.814 34.16 27.131 33.843 27.131 33.451 L 26.938 33.451 L 26.745 33.451 C 26.745 33.629 26.6 33.773 26.422 33.773 L 26.422 33.967 Z M 0 34.018 L -0.193 34.018 C -0.193 34.409 0.124 34.726 0.515 34.726 L 0.515 34.533 L 0.515 34.34 C 0.338 34.34 0.193 34.196 0.193 34.018 L 0 34.018 Z M 16.729 12.691 L 16.547 12.624 C 16.414 12.991 16.602 13.396 16.968 13.532 L 17.035 13.35 L 17.102 13.169 C 16.935 13.108 16.85 12.923 16.911 12.757 L 16.729 12.691 Z M 13.427 19.982 L 13.233 19.982 C 13.233 20.159 13.09 20.303 12.913 20.304 L 12.914 20.498 L 12.915 20.691 C 13.305 20.689 13.62 20.372 13.62 19.982 L 13.427 19.982 Z M 11.71 16.131 L 11.71 15.938 C 11.93 15.938 11.978 16.243 11.773 16.314 L 11.71 16.131 L 11.647 15.948 C 11.442 16.019 11.49 16.324 11.71 16.324 L 11.71 16.131 Z M 13.938 12.092 L 14.115 12.17 C 14.17 12.044 14.108 11.905 13.989 11.855 L 13.914 12.033 L 13.839 12.211 C 13.767 12.181 13.726 12.094 13.761 12.015 L 13.938 12.092 Z M 5.206 23.002 L 5.206 22.809 C 5.123 22.809 5.05 22.861 5.022 22.938 L 5.205 23.003 L 5.387 23.067 C 5.36 23.144 5.287 23.195 5.206 23.195 L 5.206 23.002 Z M 13.932 11.944 L 13.932 12.138 C 14.064 12.138 14.171 12.03 14.171 11.898 L 13.978 11.898 L 13.784 11.898 C 13.784 11.817 13.85 11.751 13.932 11.751 L 13.932 11.944 Z M 14.506 20.471 L 14.506 20.278 C 14.328 20.278 14.184 20.133 14.184 19.956 L 13.991 19.956 L 13.798 19.956 C 13.798 20.347 14.115 20.664 14.506 20.664 L 14.506 20.471 Z M 1.08 7.585 L 1.08 7.392 C 0.689 7.392 0.371 7.709 0.371 8.101 L 0.565 8.101 L 0.758 8.101 C 0.758 7.923 0.902 7.778 1.08 7.778 L 1.08 7.585 Z M 12.911 7.585 L 12.911 7.778 C 13.089 7.778 13.233 7.923 13.233 8.101 L 13.426 8.101 L 13.62 8.101 C 13.62 7.709 13.302 7.392 12.911 7.392 L 12.911 7.585 Z M 13.991 16.513 L 14.184 16.513 C 14.184 16.436 14.172 16.353 14.139 16.271 L 13.96 16.345 L 13.782 16.419 C 13.792 16.443 13.798 16.475 13.798 16.513 L 13.991 16.513 Z M 5.206 23.001 L 5.022 22.944 C 5.047 22.863 5.121 22.809 5.206 22.809 L 5.206 23.002 L 5.206 23.195 C 5.291 23.195 5.366 23.14 5.391 23.059 L 5.206 23.001 Z M 13.914 12.033 L 13.989 11.855 C 14.135 11.916 14.094 12.138 13.932 12.138 L 13.932 11.944 L 13.932 11.751 C 13.669 11.751 13.6 12.111 13.839 12.211 L 13.914 12.033 Z" fill="currentColor" fill-rule="nonzero"></path>
</svg>