<svg xmlns="http://www.w3.org/2000/svg" width="36.953" height="30.048" viewBox="0 0 36.953 30.048" fill="none">
  <path d="M 6.093 1.479 C 6.24 1.298 6.507 1.269 6.688 1.412 L 12.003 5.655 C 12.032 5.676 12.052 5.701 12.072 5.726 C 12.092 5.75 12.603 6.325 14.011 6.357 C 15.153 6.386 15.761 6.567 16.073 6.715 C 18.394 5.606 21.273 5.955 22.345 6.087 C 23.679 6.251 24.697 5.803 24.891 5.713 L 30.201 1.417 C 30.386 1.269 30.649 1.298 30.797 1.479 C 30.945 1.659 30.916 1.926 30.735 2.074 L 25.392 6.398 C 25.367 6.415 25.347 6.432 25.322 6.444 C 25.268 6.473 23.983 7.138 22.246 6.925 C 21.043 6.781 17.387 6.333 15.28 8.247 C 14.056 9.356 13.017 11.032 12.36 12.239 C 12.028 12.851 12.184 13.611 12.726 14.046 C 13.029 14.284 13.403 14.396 13.789 14.351 C 14.171 14.305 14.516 14.112 14.754 13.808 L 17.642 10.128 C 17.67 10.095 17.703 10.063 17.74 10.038 C 18.061 9.829 18.874 9.652 19.642 10.506 L 22.233 13.385 C 23.877 15.213 25.558 15.082 25.634 15.073 C 25.864 15.049 26.069 15.221 26.094 15.451 C 26.118 15.685 25.95 15.89 25.721 15.915 C 25.708 15.915 25.634 15.923 25.52 15.923 C 25.285 15.923 24.874 15.895 24.356 15.747 L 26.41 18.03 C 27.379 16.979 30.255 13.877 30.653 13.508 C 31.971 12.276 36.113 9.426 36.296 9.303 C 36.489 9.171 36.752 9.22 36.884 9.413 L 36.88 9.417 C 37.011 9.61 36.962 9.873 36.769 10.005 C 36.721 10.042 32.492 12.947 31.224 14.133 C 30.89 14.451 28.43 17.09 26.973 18.667 L 28.156 19.981 C 28.649 20.458 28.912 21.123 28.875 21.809 C 28.813 23.02 27.815 24.002 26.604 24.047 L 26.513 24.047 C 26.361 24.047 26.213 24.031 26.065 24.002 C 26.082 24.113 26.094 24.228 26.094 24.343 C 26.094 25.608 25.068 26.635 23.803 26.635 C 23.384 26.635 22.977 26.519 22.624 26.306 C 22.558 27.505 21.559 28.462 20.344 28.462 C 20.007 28.462 19.675 28.385 19.375 28.245 C 19.289 29.251 18.438 30.048 17.407 30.048 C 16.849 30.048 16.311 29.809 15.938 29.391 L 15.342 28.795 C 15.091 28.922 14.808 28.992 14.521 28.992 L 14.438 28.992 C 13.954 28.968 13.501 28.758 13.173 28.4 C 12.935 28.138 12.779 27.821 12.722 27.48 C 12.323 27.821 11.822 28.011 11.296 28.011 L 11.197 28.011 C 10.61 27.986 10.072 27.731 9.674 27.3 L 9.477 27.087 C 9.082 26.656 8.877 26.092 8.901 25.505 C 8.905 25.411 8.918 25.316 8.935 25.222 C 8.807 25.242 8.675 25.255 8.544 25.255 L 8.438 25.255 C 7.793 25.226 7.201 24.942 6.766 24.462 C 5.875 23.472 5.941 21.932 6.914 21.024 L 7.489 20.49 C 7.177 20.404 6.881 20.231 6.643 19.973 L 6.605 19.932 C 6.277 19.574 6.109 19.11 6.13 18.626 C 6.15 18.141 6.36 17.698 6.717 17.369 L 6.897 17.205 C 6.647 16.905 6.352 16.416 6.311 15.759 C 6.269 15.114 5.846 14.288 5.641 13.943 L 0.174 10.005 C -0.015 9.865 -0.055 9.602 0.08 9.413 C 0.22 9.224 0.482 9.184 0.671 9.319 L 6.203 13.307 C 6.248 13.339 6.286 13.381 6.314 13.426 C 6.347 13.479 7.087 14.663 7.152 15.71 C 7.177 16.125 7.362 16.436 7.518 16.638 L 8.302 15.919 C 9.041 15.241 10.188 15.295 10.865 16.03 L 10.902 16.071 C 11.321 16.523 11.46 17.135 11.333 17.697 L 11.534 17.697 C 12.179 17.726 12.771 18.01 13.206 18.49 C 13.719 19.061 13.913 19.809 13.802 20.52 C 13.999 20.47 14.209 20.449 14.418 20.457 C 15.005 20.482 15.543 20.737 15.941 21.168 L 16.139 21.382 C 16.533 21.813 16.739 22.376 16.714 22.963 C 16.71 23.037 16.702 23.107 16.693 23.177 C 16.788 23.164 16.886 23.16 16.984 23.164 C 17.469 23.189 17.921 23.399 18.25 23.756 C 18.578 24.113 18.746 24.577 18.726 25.065 C 18.709 25.476 18.558 25.858 18.295 26.166 L 19.248 27.119 C 19.252 27.123 19.26 27.128 19.264 27.136 C 19.539 27.444 19.933 27.62 20.344 27.62 C 21.141 27.62 21.786 26.976 21.786 26.179 C 21.786 25.78 21.625 25.411 21.338 25.136 L 18.705 22.503 C 18.541 22.335 18.541 22.068 18.705 21.903 C 18.873 21.739 19.14 21.739 19.305 21.903 L 21.729 24.326 C 21.757 24.343 21.782 24.363 21.807 24.388 L 22.702 25.283 C 22.706 25.287 22.714 25.292 22.718 25.3 C 22.993 25.612 23.388 25.789 23.803 25.789 C 24.599 25.789 25.248 25.139 25.248 24.343 C 25.248 24.006 25.129 23.689 24.92 23.431 C 24.858 23.377 24.801 23.316 24.743 23.255 C 24.736 23.243 24.721 23.221 24.719 23.218 L 22.008 20.453 C 21.844 20.285 21.843 20.018 22.012 19.854 C 22.18 19.689 22.447 19.689 22.611 19.857 L 25.384 22.688 C 25.429 22.733 25.474 22.778 25.515 22.827 C 25.806 23.082 26.18 23.213 26.57 23.201 C 27.347 23.172 27.987 22.54 28.028 21.764 C 28.053 21.32 27.881 20.889 27.561 20.581 C 27.552 20.573 27.536 20.556 27.536 20.556 L 19.005 11.072 C 18.631 10.662 18.352 10.69 18.237 10.731 L 15.411 14.338 C 15.033 14.822 14.488 15.126 13.88 15.196 C 13.272 15.266 12.672 15.094 12.191 14.712 C 11.329 14.018 11.087 12.81 11.612 11.841 C 12.302 10.572 13.395 8.814 14.709 7.623 C 14.832 7.508 14.964 7.405 15.096 7.307 C 14.829 7.261 14.467 7.22 13.99 7.208 C 12.348 7.167 11.621 6.493 11.444 6.296 L 6.158 2.074 C 5.977 1.926 5.949 1.659 6.093 1.479 Z M 16.011 28.266 L 16.541 28.795 C 16.545 28.799 16.554 28.803 16.558 28.812 C 16.771 29.054 17.079 29.193 17.403 29.193 L 17.407 29.197 C 18.031 29.197 18.541 28.689 18.541 28.064 C 18.541 27.752 18.413 27.46 18.188 27.242 C 18.176 27.231 18.158 27.209 18.155 27.206 L 17.683 26.733 L 16.011 28.266 Z M 16.902 23.994 C 16.656 23.994 16.422 24.085 16.241 24.253 L 15.999 24.475 L 13.854 26.441 C 13.662 26.618 13.551 26.856 13.539 27.119 C 13.527 27.378 13.617 27.628 13.793 27.821 C 13.97 28.014 14.208 28.125 14.471 28.138 L 14.471 28.134 C 14.725 28.146 14.98 28.055 15.173 27.879 L 17.563 25.69 C 17.756 25.514 17.867 25.275 17.88 25.013 C 17.892 24.754 17.802 24.503 17.625 24.31 C 17.448 24.117 17.21 24.006 16.947 23.994 L 16.902 23.994 Z M 14.319 21.291 C 13.995 21.291 13.666 21.406 13.407 21.645 L 10.184 24.598 C 9.917 24.84 9.761 25.173 9.744 25.534 C 9.728 25.896 9.854 26.241 10.097 26.508 L 10.294 26.721 C 10.536 26.984 10.869 27.14 11.23 27.156 L 11.238 27.16 C 11.604 27.177 11.945 27.05 12.212 26.808 L 13.288 25.821 L 15.432 23.854 C 15.982 23.353 16.02 22.495 15.515 21.944 L 15.317 21.73 C 15.05 21.439 14.685 21.291 14.319 21.291 Z M 11.424 18.523 C 11.153 18.523 10.894 18.597 10.664 18.729 L 9.197 20.071 C 9.123 20.137 9.05 20.191 8.972 20.244 L 7.484 21.632 C 6.848 22.227 6.807 23.238 7.391 23.887 C 7.67 24.199 8.056 24.384 8.471 24.4 L 8.475 24.396 C 8.889 24.417 9.284 24.269 9.592 23.981 L 12.479 21.291 C 13.116 20.695 13.156 19.685 12.573 19.036 C 12.294 18.724 11.908 18.54 11.493 18.523 L 11.424 18.523 Z M 9.521 16.272 C 9.288 16.273 9.054 16.359 8.869 16.527 L 7.283 17.98 C 6.889 18.342 6.86 18.954 7.222 19.349 L 7.259 19.39 L 7.255 19.39 C 7.567 19.726 8.068 19.796 8.45 19.574 L 9.793 18.322 C 9.908 18.22 10.027 18.125 10.154 18.047 L 10.212 17.993 C 10.606 17.632 10.635 17.02 10.273 16.626 L 10.236 16.584 C 10.047 16.379 9.784 16.272 9.521 16.272 Z M 12.29 1.491 C 12.454 1.327 12.721 1.322 12.89 1.486 L 15.063 3.627 C 15.226 3.791 15.231 4.058 15.066 4.227 C 14.984 4.313 14.873 4.353 14.767 4.354 C 14.66 4.354 14.553 4.313 14.471 4.23 L 14.467 4.23 L 12.294 2.091 C 12.13 1.927 12.126 1.66 12.29 1.491 Z M 18.447 0 C 18.681 0 18.87 0.189 18.87 0.423 L 18.87 3.926 C 18.87 4.16 18.681 4.35 18.447 4.35 L 18.447 4.354 C 18.213 4.354 18.025 4.165 18.024 3.931 L 18.024 0.423 C 18.024 0.189 18.213 0 18.447 0 Z M 24.049 1.482 C 24.217 1.318 24.484 1.318 24.648 1.486 C 24.813 1.655 24.813 1.922 24.645 2.086 L 22.472 4.226 C 22.39 4.308 22.283 4.35 22.176 4.35 L 22.172 4.35 C 22.065 4.35 21.954 4.304 21.872 4.222 C 21.708 4.053 21.708 3.786 21.876 3.622 L 24.049 1.482 Z" fill="currentColor" fill-rule="nonzero"></path>
  <path d="M 6.093 1.479 L 6.053 1.446 L 6.052 1.446 L 6.093 1.479 Z M 6.688 1.412 L 6.72 1.372 L 6.72 1.372 L 6.688 1.412 Z M 12.003 5.655 L 11.971 5.696 L 11.973 5.697 L 12.003 5.655 Z M 12.072 5.726 L 12.112 5.693 L 12.112 5.693 L 12.072 5.726 Z M 14.011 6.357 L 14.012 6.306 L 14.012 6.306 L 14.011 6.357 Z M 16.073 6.715 L 16.051 6.761 L 16.073 6.772 L 16.095 6.761 L 16.073 6.715 Z M 22.345 6.087 L 22.351 6.036 L 22.351 6.036 L 22.345 6.087 Z M 24.891 5.713 L 24.913 5.761 L 24.923 5.753 L 24.891 5.713 Z M 30.201 1.417 L 30.169 1.377 L 30.169 1.377 L 30.201 1.417 Z M 30.797 1.479 L 30.837 1.446 L 30.837 1.446 L 30.797 1.479 Z M 30.735 2.074 L 30.768 2.114 L 30.768 2.114 L 30.735 2.074 Z M 25.392 6.398 L 25.42 6.442 L 25.424 6.439 L 25.392 6.398 Z M 25.322 6.444 L 25.299 6.398 L 25.298 6.399 L 25.322 6.444 Z M 22.246 6.925 L 22.252 6.874 L 22.252 6.874 L 22.246 6.925 Z M 15.28 8.247 L 15.315 8.285 L 15.315 8.285 L 15.28 8.247 Z M 12.36 12.239 L 12.315 12.215 L 12.315 12.215 L 12.36 12.239 Z M 12.726 14.046 L 12.693 14.086 L 12.694 14.086 L 12.726 14.046 Z M 13.789 14.351 L 13.795 14.402 L 13.795 14.402 L 13.789 14.351 Z M 14.754 13.808 L 14.713 13.776 L 14.713 13.776 L 14.754 13.808 Z M 17.642 10.128 L 17.603 10.094 L 17.601 10.096 L 17.642 10.128 Z M 17.74 10.038 L 17.712 9.995 L 17.712 9.995 L 17.74 10.038 Z M 19.642 10.506 L 19.603 10.54 L 19.603 10.54 L 19.642 10.506 Z M 22.233 13.385 L 22.272 13.35 L 22.272 13.35 L 22.233 13.385 Z M 25.634 15.073 L 25.628 15.022 L 25.628 15.022 L 25.634 15.073 Z M 26.094 15.451 L 26.145 15.446 L 26.145 15.446 L 26.094 15.451 Z M 25.721 15.915 L 25.721 15.967 L 25.726 15.966 L 25.721 15.915 Z M 25.52 15.923 L 25.52 15.974 L 25.52 15.974 L 25.52 15.923 Z M 24.356 15.747 L 24.371 15.698 L 24.198 15.648 L 24.318 15.782 L 24.356 15.747 Z M 26.41 18.03 L 26.372 18.065 L 26.41 18.107 L 26.448 18.065 L 26.41 18.03 Z M 30.653 13.508 L 30.688 13.546 L 30.689 13.545 L 30.653 13.508 Z M 36.296 9.303 L 36.325 9.345 L 36.325 9.345 L 36.296 9.303 Z M 36.884 9.413 L 36.92 9.45 L 36.95 9.419 L 36.926 9.384 L 36.884 9.413 Z M 36.88 9.417 L 36.843 9.381 L 36.813 9.411 L 36.837 9.446 L 36.88 9.417 Z M 36.769 10.005 L 36.739 9.962 L 36.737 9.964 L 36.769 10.005 Z M 31.224 14.133 L 31.188 14.095 L 31.188 14.095 L 31.224 14.133 Z M 26.973 18.667 L 26.935 18.632 L 26.903 18.667 L 26.934 18.701 L 26.973 18.667 Z M 28.156 19.981 L 28.118 20.016 L 28.12 20.018 L 28.156 19.981 Z M 28.875 21.809 L 28.824 21.806 L 28.824 21.806 L 28.875 21.809 Z M 26.604 24.047 L 26.604 24.098 L 26.605 24.098 L 26.604 24.047 Z M 26.513 24.047 L 26.513 24.098 L 26.513 24.098 L 26.513 24.047 Z M 26.065 24.002 L 26.075 23.951 L 26.004 23.937 L 26.014 24.01 L 26.065 24.002 Z M 26.094 24.343 L 26.145 24.343 L 26.145 24.343 L 26.094 24.343 Z M 23.803 26.635 L 23.803 26.686 L 23.803 26.686 L 23.803 26.635 Z M 22.624 26.306 L 22.651 26.262 L 22.577 26.217 L 22.573 26.303 L 22.624 26.306 Z M 20.344 28.462 L 20.344 28.513 L 20.344 28.513 L 20.344 28.462 Z M 19.375 28.245 L 19.397 28.198 L 19.33 28.167 L 19.324 28.241 L 19.375 28.245 Z M 17.407 30.048 L 17.407 30.099 L 17.407 30.099 L 17.407 30.048 Z M 15.938 29.391 L 15.976 29.356 L 15.974 29.354 L 15.938 29.391 Z M 15.342 28.795 L 15.378 28.758 L 15.352 28.732 L 15.318 28.749 L 15.342 28.795 Z M 14.521 28.992 L 14.521 29.044 L 14.521 29.044 L 14.521 28.992 Z M 14.438 28.992 L 14.436 29.044 L 14.438 29.044 L 14.438 28.992 Z M 13.173 28.4 L 13.135 28.435 L 13.135 28.435 L 13.173 28.4 Z M 12.722 27.48 L 12.773 27.472 L 12.757 27.382 L 12.688 27.441 L 12.722 27.48 Z M 11.197 28.011 L 11.195 28.062 L 11.197 28.062 L 11.197 28.011 Z M 9.674 27.3 L 9.712 27.265 L 9.712 27.265 L 9.674 27.3 Z M 9.477 27.087 L 9.439 27.122 L 9.439 27.122 L 9.477 27.087 Z M 8.901 25.505 L 8.85 25.503 L 8.85 25.503 L 8.901 25.505 Z M 8.935 25.222 L 8.985 25.231 L 8.998 25.159 L 8.926 25.171 L 8.935 25.222 Z M 8.438 25.255 L 8.435 25.306 L 8.438 25.306 L 8.438 25.255 Z M 6.766 24.462 L 6.727 24.496 L 6.727 24.497 L 6.766 24.462 Z M 6.914 21.024 L 6.879 20.987 L 6.879 20.987 L 6.914 21.024 Z M 7.489 20.49 L 7.524 20.528 L 7.592 20.465 L 7.503 20.441 L 7.489 20.49 Z M 6.643 19.973 L 6.604 20.007 L 6.605 20.008 L 6.643 19.973 Z M 6.605 19.932 L 6.644 19.897 L 6.643 19.897 L 6.605 19.932 Z M 6.13 18.626 L 6.078 18.624 L 6.078 18.624 L 6.13 18.626 Z M 6.717 17.369 L 6.682 17.331 L 6.682 17.331 L 6.717 17.369 Z M 6.897 17.205 L 6.932 17.243 L 6.969 17.21 L 6.937 17.172 L 6.897 17.205 Z M 6.311 15.759 L 6.362 15.756 L 6.362 15.756 L 6.311 15.759 Z M 5.641 13.943 L 5.685 13.917 L 5.679 13.908 L 5.671 13.902 L 5.641 13.943 Z M 0.174 10.005 L 0.143 10.046 L 0.144 10.047 L 0.174 10.005 Z M 0.08 9.413 L 0.039 9.382 L 0.038 9.383 L 0.08 9.413 Z M 0.671 9.319 L 0.701 9.278 L 0.701 9.277 L 0.671 9.319 Z M 6.203 13.307 L 6.233 13.265 L 6.233 13.265 L 6.203 13.307 Z M 6.314 13.426 L 6.358 13.399 L 6.358 13.398 L 6.314 13.426 Z M 7.152 15.71 L 7.204 15.707 L 7.204 15.707 L 7.152 15.71 Z M 7.518 16.638 L 7.477 16.669 L 7.511 16.714 L 7.552 16.676 L 7.518 16.638 Z M 8.302 15.919 L 8.337 15.957 L 8.337 15.957 L 8.302 15.919 Z M 10.865 16.03 L 10.903 15.996 L 10.903 15.995 L 10.865 16.03 Z M 10.902 16.071 L 10.864 16.106 L 10.865 16.106 L 10.902 16.071 Z M 11.333 17.697 L 11.283 17.686 L 11.269 17.749 L 11.333 17.749 L 11.333 17.697 Z M 11.534 17.697 L 11.536 17.646 L 11.534 17.646 L 11.534 17.697 Z M 13.206 18.49 L 13.244 18.456 L 13.244 18.456 L 13.206 18.49 Z M 13.802 20.52 L 13.751 20.512 L 13.739 20.588 L 13.814 20.57 L 13.802 20.52 Z M 14.418 20.457 L 14.42 20.406 L 14.42 20.406 L 14.418 20.457 Z M 15.941 21.168 L 15.979 21.133 L 15.979 21.133 L 15.941 21.168 Z M 16.139 21.382 L 16.177 21.347 L 16.177 21.347 L 16.139 21.382 Z M 16.714 22.963 L 16.765 22.966 L 16.765 22.965 L 16.714 22.963 Z M 16.693 23.177 L 16.642 23.171 L 16.634 23.236 L 16.7 23.228 L 16.693 23.177 Z M 16.984 23.164 L 16.987 23.113 L 16.987 23.113 L 16.984 23.164 Z M 18.25 23.756 L 18.288 23.721 L 18.288 23.721 L 18.25 23.756 Z M 18.726 25.065 L 18.674 25.063 L 18.674 25.063 L 18.726 25.065 Z M 18.295 26.166 L 18.256 26.133 L 18.225 26.169 L 18.258 26.202 L 18.295 26.166 Z M 19.248 27.119 L 19.212 27.156 L 19.212 27.156 L 19.248 27.119 Z M 19.264 27.136 L 19.216 27.16 L 19.225 27.17 L 19.264 27.136 Z M 20.344 27.62 L 20.344 27.672 L 20.344 27.672 L 20.344 27.62 Z M 21.786 26.179 L 21.838 26.179 L 21.838 26.179 L 21.786 26.179 Z M 21.338 25.136 L 21.301 25.172 L 21.302 25.173 L 21.338 25.136 Z M 18.705 22.503 L 18.668 22.539 L 18.669 22.539 L 18.705 22.503 Z M 18.705 21.903 L 18.669 21.866 L 18.669 21.867 L 18.705 21.903 Z M 19.305 21.903 L 19.341 21.867 L 19.341 21.867 L 19.305 21.903 Z M 21.729 24.326 L 21.691 24.364 L 21.703 24.371 L 21.729 24.326 Z M 21.807 24.388 L 21.843 24.351 L 21.843 24.351 L 21.807 24.388 Z M 22.702 25.283 L 22.666 25.32 L 22.666 25.32 L 22.702 25.283 Z M 22.718 25.3 L 22.67 25.324 L 22.679 25.334 L 22.718 25.3 Z M 23.803 25.789 L 23.803 25.841 L 23.803 25.841 L 23.803 25.789 Z M 25.248 24.343 L 25.3 24.343 L 25.3 24.343 L 25.248 24.343 Z M 24.92 23.431 L 24.961 23.398 L 24.954 23.392 L 24.92 23.431 Z M 24.743 23.255 L 24.7 23.284 L 24.705 23.29 L 24.743 23.255 Z M 24.719 23.218 L 24.762 23.189 L 24.756 23.182 L 24.719 23.218 Z M 22.008 20.453 L 21.971 20.489 L 21.971 20.489 L 22.008 20.453 Z M 22.012 19.854 L 21.976 19.817 L 21.976 19.817 L 22.012 19.854 Z M 22.611 19.857 L 22.574 19.893 L 22.575 19.893 L 22.611 19.857 Z M 25.384 22.688 L 25.347 22.724 L 25.347 22.724 L 25.384 22.688 Z M 25.515 22.827 L 25.475 22.861 L 25.481 22.866 L 25.515 22.827 Z M 26.57 23.201 L 26.572 23.253 L 26.572 23.253 L 26.57 23.201 Z M 28.028 21.764 L 27.977 21.761 L 27.977 21.761 L 28.028 21.764 Z M 27.561 20.581 L 27.524 20.618 L 27.525 20.618 L 27.561 20.581 Z M 27.536 20.556 L 27.498 20.59 L 27.499 20.591 L 27.536 20.556 Z M 19.005 11.072 L 19.043 11.038 L 19.043 11.038 L 19.005 11.072 Z M 18.237 10.731 L 18.22 10.683 L 18.206 10.688 L 18.197 10.7 L 18.237 10.731 Z M 15.411 14.338 L 15.371 14.306 L 15.37 14.306 L 15.411 14.338 Z M 13.88 15.196 L 13.886 15.247 L 13.886 15.247 L 13.88 15.196 Z M 12.191 14.712 L 12.159 14.752 L 12.159 14.752 L 12.191 14.712 Z M 11.612 11.841 L 11.567 11.816 L 11.567 11.816 L 11.612 11.841 Z M 14.709 7.623 L 14.744 7.661 L 14.744 7.661 L 14.709 7.623 Z M 15.096 7.307 L 15.127 7.348 L 15.223 7.276 L 15.104 7.256 L 15.096 7.307 Z M 13.99 7.208 L 13.992 7.156 L 13.992 7.156 L 13.99 7.208 Z M 11.444 6.296 L 11.483 6.261 L 11.477 6.256 L 11.444 6.296 Z M 6.158 2.074 L 6.126 2.114 L 6.126 2.114 L 6.158 2.074 Z M 16.011 28.266 L 15.976 28.228 L 15.936 28.264 L 15.974 28.302 L 16.011 28.266 Z M 16.541 28.795 L 16.577 28.758 L 16.577 28.758 L 16.541 28.795 Z M 16.558 28.812 L 16.51 28.835 L 16.519 28.846 L 16.558 28.812 Z M 17.403 29.193 L 17.44 29.157 L 17.425 29.142 L 17.403 29.142 L 17.403 29.193 Z M 17.407 29.197 L 17.371 29.234 L 17.386 29.249 L 17.407 29.249 L 17.407 29.197 Z M 18.541 28.064 L 18.593 28.064 L 18.593 28.064 L 18.541 28.064 Z M 18.188 27.242 L 18.151 27.279 L 18.152 27.279 L 18.188 27.242 Z M 18.155 27.206 L 18.195 27.173 L 18.192 27.17 L 18.155 27.206 Z M 17.683 26.733 L 17.719 26.697 L 17.684 26.662 L 17.648 26.695 L 17.683 26.733 Z M 16.902 23.994 L 16.902 23.943 L 16.902 23.943 L 16.902 23.994 Z M 16.241 24.253 L 16.276 24.291 L 16.276 24.291 L 16.241 24.253 Z M 15.999 24.475 L 15.964 24.437 L 15.964 24.437 L 15.999 24.475 Z M 13.854 26.441 L 13.889 26.479 L 13.889 26.479 L 13.854 26.441 Z M 13.539 27.119 L 13.591 27.122 L 13.591 27.122 L 13.539 27.119 Z M 13.793 27.821 L 13.755 27.856 L 13.755 27.856 L 13.793 27.821 Z M 14.471 28.138 L 14.468 28.189 L 14.522 28.192 L 14.522 28.138 L 14.471 28.138 Z M 14.471 28.134 L 14.473 28.082 L 14.419 28.08 L 14.419 28.134 L 14.471 28.134 Z M 15.173 27.879 L 15.208 27.917 L 15.208 27.917 L 15.173 27.879 Z M 17.563 25.69 L 17.529 25.652 L 17.529 25.652 L 17.563 25.69 Z M 17.88 25.013 L 17.828 25.01 L 17.828 25.01 L 17.88 25.013 Z M 17.625 24.31 L 17.663 24.275 L 17.663 24.275 L 17.625 24.31 Z M 16.947 23.994 L 16.95 23.943 L 16.947 23.943 L 16.947 23.994 Z M 14.319 21.291 L 14.319 21.239 L 14.319 21.239 L 14.319 21.291 Z M 13.407 21.645 L 13.442 21.683 L 13.442 21.682 L 13.407 21.645 Z M 10.184 24.598 L 10.218 24.636 L 10.218 24.636 L 10.184 24.598 Z M 9.744 25.534 L 9.693 25.532 L 9.693 25.532 L 9.744 25.534 Z M 10.097 26.508 L 10.059 26.542 L 10.059 26.543 L 10.097 26.508 Z M 10.294 26.721 L 10.332 26.686 L 10.332 26.686 L 10.294 26.721 Z M 11.23 27.156 L 11.254 27.11 L 11.244 27.105 L 11.233 27.105 L 11.23 27.156 Z M 11.238 27.16 L 11.215 27.206 L 11.225 27.211 L 11.236 27.212 L 11.238 27.16 Z M 12.212 26.808 L 12.247 26.846 L 12.247 26.846 L 12.212 26.808 Z M 13.288 25.821 L 13.323 25.859 L 13.323 25.859 L 13.288 25.821 Z M 15.432 23.854 L 15.397 23.816 L 15.397 23.817 L 15.432 23.854 Z M 15.515 21.944 L 15.553 21.909 L 15.553 21.909 L 15.515 21.944 Z M 15.317 21.73 L 15.279 21.765 L 15.279 21.765 L 15.317 21.73 Z M 10.664 18.729 L 10.638 18.683 L 10.629 18.69 L 10.664 18.729 Z M 9.197 20.071 L 9.232 20.11 L 9.232 20.109 L 9.197 20.071 Z M 8.972 20.244 L 8.942 20.201 L 8.937 20.206 L 8.972 20.244 Z M 7.484 21.632 L 7.449 21.594 L 7.449 21.594 L 7.484 21.632 Z M 7.391 23.887 L 7.429 23.852 L 7.429 23.852 L 7.391 23.887 Z M 8.471 24.4 L 8.469 24.452 L 8.491 24.453 L 8.507 24.437 L 8.471 24.4 Z M 8.475 24.396 L 8.477 24.345 L 8.454 24.344 L 8.438 24.36 L 8.475 24.396 Z M 9.592 23.981 L 9.557 23.944 L 9.557 23.944 L 9.592 23.981 Z M 12.479 21.291 L 12.515 21.329 L 12.515 21.329 L 12.479 21.291 Z M 12.573 19.036 L 12.535 19.071 L 12.535 19.071 L 12.573 19.036 Z M 11.493 18.523 L 11.495 18.472 L 11.493 18.472 L 11.493 18.523 Z M 9.521 16.272 L 9.521 16.221 L 9.521 16.221 L 9.521 16.272 Z M 8.869 16.527 L 8.834 16.489 L 8.834 16.489 L 8.869 16.527 Z M 7.283 17.98 L 7.248 17.942 L 7.248 17.942 L 7.283 17.98 Z M 7.222 19.349 L 7.26 19.314 L 7.26 19.314 L 7.222 19.349 Z M 7.259 19.39 L 7.259 19.441 L 7.375 19.441 L 7.297 19.355 L 7.259 19.39 Z M 7.255 19.39 L 7.255 19.338 L 7.137 19.338 L 7.217 19.425 L 7.255 19.39 Z M 8.45 19.574 L 8.477 19.62 L 8.485 19.612 L 8.45 19.574 Z M 9.793 18.322 L 9.759 18.284 L 9.758 18.285 L 9.793 18.322 Z M 10.154 18.047 L 10.182 18.092 L 10.189 18.085 L 10.154 18.047 Z M 10.212 17.993 L 10.177 17.955 L 10.177 17.955 L 10.212 17.993 Z M 10.273 16.626 L 10.235 16.66 L 10.235 16.661 L 10.273 16.626 Z M 10.236 16.584 L 10.275 16.55 L 10.274 16.549 L 10.236 16.584 Z M 12.29 1.491 L 12.254 1.455 L 12.253 1.455 L 12.29 1.491 Z M 12.89 1.486 L 12.926 1.45 L 12.926 1.449 L 12.89 1.486 Z M 15.063 3.627 L 15.099 3.591 L 15.099 3.59 L 15.063 3.627 Z M 15.066 4.227 L 15.03 4.191 L 15.029 4.191 L 15.066 4.227 Z M 14.767 4.354 L 14.767 4.405 L 14.767 4.405 L 14.767 4.354 Z M 14.471 4.23 L 14.507 4.194 L 14.492 4.179 L 14.471 4.179 L 14.471 4.23 Z M 14.467 4.23 L 14.431 4.267 L 14.446 4.282 L 14.467 4.282 L 14.467 4.23 Z M 12.294 2.091 L 12.257 2.127 L 12.258 2.128 L 12.294 2.091 Z M 18.447 0 L 18.447 -0.052 L 18.447 -0.052 L 18.447 0 Z M 18.447 4.35 L 18.447 4.298 L 18.396 4.298 L 18.396 4.35 L 18.447 4.35 Z M 18.447 4.354 L 18.447 4.405 L 18.499 4.405 L 18.499 4.354 L 18.447 4.354 Z M 18.024 3.931 L 17.973 3.931 L 17.973 3.931 L 18.024 3.931 Z M 24.049 1.482 L 24.013 1.446 L 24.013 1.446 L 24.049 1.482 Z M 24.648 1.486 L 24.685 1.45 L 24.685 1.45 L 24.648 1.486 Z M 24.645 2.086 L 24.609 2.049 L 24.608 2.049 L 24.645 2.086 Z M 22.472 4.226 L 22.436 4.189 L 22.435 4.189 L 22.472 4.226 Z M 22.172 4.35 L 22.172 4.401 L 22.172 4.401 L 22.172 4.35 Z M 21.872 4.222 L 21.835 4.258 L 21.836 4.258 L 21.872 4.222 Z M 21.876 3.622 L 21.912 3.659 L 21.912 3.659 L 21.876 3.622 Z M 6.093 1.479 L 6.133 1.511 C 6.263 1.352 6.497 1.327 6.655 1.452 L 6.688 1.412 L 6.72 1.372 C 6.517 1.211 6.218 1.244 6.053 1.446 L 6.093 1.479 Z M 6.688 1.412 L 6.655 1.452 L 11.971 5.696 L 12.003 5.655 L 12.035 5.615 L 6.72 1.372 L 6.688 1.412 Z M 12.003 5.655 L 11.973 5.697 C 11.995 5.713 12.011 5.733 12.033 5.759 L 12.072 5.726 L 12.112 5.693 C 12.092 5.669 12.068 5.638 12.033 5.613 L 12.003 5.655 Z M 12.072 5.726 L 12.032 5.758 C 12.061 5.794 12.586 6.376 14.01 6.409 L 14.011 6.357 L 14.012 6.306 C 13.315 6.29 12.843 6.139 12.544 5.992 C 12.394 5.918 12.287 5.845 12.217 5.789 C 12.183 5.762 12.157 5.738 12.139 5.721 C 12.131 5.713 12.124 5.706 12.12 5.701 C 12.117 5.699 12.115 5.697 12.114 5.695 C 12.114 5.695 12.113 5.694 12.113 5.694 C 12.112 5.693 12.112 5.693 12.112 5.693 L 12.072 5.726 Z M 14.011 6.357 L 14.009 6.409 C 15.147 6.438 15.748 6.618 16.051 6.761 L 16.073 6.715 L 16.095 6.668 C 15.775 6.516 15.158 6.335 14.012 6.306 L 14.011 6.357 Z M 16.073 6.715 L 16.095 6.761 C 18.401 5.66 21.265 6.006 22.338 6.138 L 22.345 6.087 L 22.351 6.036 C 21.281 5.905 18.387 5.552 16.051 6.668 L 16.073 6.715 Z M 22.345 6.087 L 22.338 6.138 C 23.687 6.304 24.715 5.852 24.912 5.76 L 24.891 5.713 L 24.869 5.666 C 24.679 5.755 23.671 6.198 22.351 6.036 L 22.345 6.087 Z M 24.891 5.713 L 24.923 5.753 L 30.234 1.457 L 30.201 1.417 L 30.169 1.377 L 24.858 5.673 L 24.891 5.713 Z M 30.201 1.417 L 30.233 1.457 C 30.396 1.327 30.627 1.352 30.757 1.511 L 30.797 1.479 L 30.837 1.446 C 30.671 1.243 30.376 1.211 30.169 1.377 L 30.201 1.417 Z M 30.797 1.479 L 30.757 1.511 C 30.886 1.67 30.862 1.904 30.703 2.034 L 30.735 2.074 L 30.768 2.114 C 30.97 1.949 31.003 1.649 30.837 1.446 L 30.797 1.479 Z M 30.735 2.074 L 30.703 2.034 L 25.359 6.358 L 25.392 6.398 L 25.424 6.439 L 30.768 2.114 L 30.735 2.074 Z M 25.392 6.398 L 25.363 6.356 C 25.35 6.364 25.337 6.374 25.327 6.381 C 25.317 6.388 25.308 6.394 25.299 6.398 L 25.322 6.444 L 25.345 6.49 C 25.361 6.483 25.375 6.473 25.387 6.465 C 25.4 6.456 25.408 6.449 25.42 6.441 L 25.392 6.398 Z M 25.322 6.444 L 25.298 6.399 C 25.248 6.426 23.974 7.085 22.252 6.874 L 22.246 6.925 L 22.24 6.976 C 23.992 7.191 25.289 6.521 25.347 6.49 L 25.322 6.444 Z M 22.246 6.925 L 22.252 6.874 C 21.65 6.802 20.431 6.653 19.098 6.763 C 17.765 6.873 16.311 7.241 15.246 8.209 L 15.28 8.247 L 15.315 8.285 C 16.356 7.339 17.783 6.975 19.106 6.866 C 20.428 6.757 21.638 6.904 22.24 6.976 L 22.246 6.925 Z M 15.28 8.247 L 15.246 8.209 C 14.015 9.324 12.973 11.006 12.315 12.215 L 12.36 12.239 L 12.406 12.264 C 13.062 11.057 14.098 9.388 15.315 8.285 L 15.28 8.247 Z M 12.36 12.239 L 12.315 12.215 C 11.97 12.849 12.132 13.635 12.693 14.086 L 12.726 14.046 L 12.758 14.006 C 12.235 13.586 12.085 12.854 12.406 12.264 L 12.36 12.239 Z M 12.726 14.046 L 12.694 14.086 C 13.008 14.333 13.395 14.449 13.795 14.402 L 13.789 14.351 L 13.783 14.299 C 13.411 14.343 13.051 14.235 12.757 14.005 L 12.726 14.046 Z M 13.789 14.351 L 13.795 14.402 C 14.191 14.355 14.548 14.154 14.794 13.839 L 14.754 13.808 L 14.713 13.776 C 14.484 14.069 14.151 14.256 13.783 14.299 L 13.789 14.351 Z M 14.754 13.808 L 14.794 13.839 L 17.682 10.16 L 17.642 10.128 L 17.601 10.096 L 14.713 13.776 L 14.754 13.808 Z M 17.642 10.128 L 17.68 10.162 C 17.708 10.131 17.737 10.102 17.769 10.081 L 17.74 10.038 L 17.712 9.995 C 17.67 10.023 17.633 10.059 17.603 10.094 L 17.642 10.128 Z M 17.74 10.038 L 17.768 10.081 C 18.069 9.885 18.854 9.707 19.603 10.54 L 19.642 10.506 L 19.68 10.471 C 18.894 9.597 18.052 9.773 17.712 9.995 L 17.74 10.038 Z M 19.642 10.506 L 19.603 10.54 L 22.195 13.419 L 22.233 13.385 L 22.272 13.35 L 19.68 10.471 L 19.642 10.506 Z M 22.233 13.385 L 22.195 13.419 C 23.853 15.263 25.553 15.134 25.64 15.124 L 25.634 15.073 L 25.628 15.022 C 25.563 15.029 23.901 15.163 22.272 13.35 L 22.233 13.385 Z M 25.634 15.073 L 25.639 15.124 C 25.84 15.103 26.021 15.254 26.043 15.457 L 26.094 15.451 L 26.145 15.446 C 26.117 15.189 25.888 14.994 25.628 15.022 L 25.634 15.073 Z M 26.094 15.451 L 26.042 15.457 C 26.064 15.662 25.917 15.842 25.715 15.864 L 25.721 15.915 L 25.726 15.966 C 25.984 15.938 26.172 15.708 26.145 15.446 L 26.094 15.451 Z M 25.721 15.915 L 25.721 15.863 C 25.715 15.863 25.706 15.864 25.697 15.865 C 25.686 15.866 25.672 15.867 25.656 15.867 C 25.622 15.869 25.576 15.871 25.52 15.871 L 25.52 15.923 L 25.52 15.974 C 25.578 15.974 25.626 15.972 25.661 15.97 C 25.679 15.969 25.693 15.968 25.704 15.968 C 25.709 15.967 25.713 15.967 25.716 15.967 C 25.72 15.967 25.721 15.967 25.721 15.967 L 25.721 15.915 Z M 25.52 15.923 L 25.52 15.871 C 25.289 15.871 24.883 15.844 24.371 15.698 L 24.356 15.747 L 24.342 15.797 C 24.865 15.946 25.281 15.974 25.52 15.974 L 25.52 15.923 Z M 24.356 15.747 L 24.318 15.782 L 26.372 18.065 L 26.41 18.03 L 26.448 17.996 L 24.395 15.713 L 24.356 15.747 Z M 26.41 18.03 L 26.448 18.065 C 27.419 17.012 30.292 13.913 30.688 13.546 L 30.653 13.508 L 30.618 13.47 C 30.218 13.841 27.34 16.945 26.372 17.995 L 26.41 18.03 Z M 30.653 13.508 L 30.689 13.545 C 31.345 12.932 32.707 11.914 33.93 11.032 C 35.153 10.15 36.234 9.407 36.325 9.345 L 36.296 9.303 L 36.267 9.26 C 36.175 9.322 35.094 10.066 33.87 10.948 C 32.648 11.829 31.28 12.852 30.618 13.47 L 30.653 13.508 Z M 36.296 9.303 L 36.325 9.345 C 36.495 9.23 36.726 9.273 36.841 9.442 L 36.884 9.413 L 36.926 9.384 C 36.779 9.167 36.483 9.113 36.267 9.26 L 36.296 9.303 Z M 36.884 9.413 L 36.847 9.377 L 36.843 9.381 L 36.88 9.417 L 36.916 9.453 L 36.92 9.45 L 36.884 9.413 Z M 36.88 9.417 L 36.837 9.446 C 36.953 9.616 36.909 9.847 36.74 9.962 L 36.769 10.005 L 36.798 10.047 C 37.014 9.9 37.07 9.604 36.922 9.388 L 36.88 9.417 Z M 36.769 10.005 L 36.737 9.964 C 36.737 9.964 36.736 9.965 36.733 9.967 C 36.731 9.969 36.727 9.971 36.722 9.974 C 36.713 9.981 36.7 9.99 36.683 10.002 C 36.649 10.026 36.601 10.059 36.539 10.102 C 36.417 10.187 36.242 10.308 36.031 10.457 C 35.608 10.753 35.035 11.156 34.424 11.596 C 33.203 12.475 31.825 13.499 31.188 14.095 L 31.224 14.133 L 31.259 14.17 C 31.89 13.58 33.261 12.559 34.484 11.68 C 35.095 11.24 35.667 10.837 36.09 10.541 C 36.511 10.246 36.787 10.056 36.8 10.045 L 36.769 10.005 Z M 31.224 14.133 L 31.188 14.095 C 30.852 14.415 28.391 17.056 26.935 18.632 L 26.973 18.667 L 27.011 18.702 C 28.469 17.124 30.927 14.486 31.259 14.17 L 31.224 14.133 Z M 26.973 18.667 L 26.934 18.701 L 28.118 20.016 L 28.156 19.981 L 28.195 19.947 L 27.011 18.633 L 26.973 18.667 Z M 28.156 19.981 L 28.12 20.018 C 28.602 20.485 28.86 21.135 28.824 21.806 L 28.875 21.809 L 28.926 21.811 C 28.964 21.111 28.695 20.431 28.192 19.944 L 28.156 19.981 Z M 28.875 21.809 L 28.824 21.806 C 28.763 22.991 27.787 23.951 26.602 23.995 L 26.604 24.047 L 26.605 24.098 C 27.844 24.052 28.864 23.05 28.926 21.811 L 28.875 21.809 Z M 26.604 24.047 L 26.604 23.995 L 26.513 23.995 L 26.513 24.047 L 26.513 24.098 L 26.604 24.098 L 26.604 24.047 Z M 26.513 24.047 L 26.513 23.995 C 26.365 23.995 26.22 23.98 26.075 23.951 L 26.065 24.002 L 26.056 24.053 C 26.206 24.082 26.357 24.098 26.513 24.098 L 26.513 24.047 Z M 26.065 24.002 L 26.014 24.01 C 26.031 24.119 26.042 24.231 26.042 24.343 L 26.094 24.343 L 26.145 24.343 C 26.145 24.224 26.133 24.107 26.116 23.994 L 26.065 24.002 Z M 26.094 24.343 L 26.042 24.343 C 26.042 25.579 25.039 26.583 23.803 26.583 L 23.803 26.635 L 23.803 26.686 C 25.096 26.686 26.145 25.636 26.145 24.343 L 26.094 24.343 Z M 23.803 26.635 L 23.803 26.583 C 23.393 26.583 22.996 26.47 22.651 26.262 L 22.624 26.306 L 22.597 26.35 C 22.959 26.568 23.374 26.686 23.803 26.686 L 23.803 26.635 Z M 22.624 26.306 L 22.573 26.303 C 22.508 27.475 21.532 28.41 20.344 28.41 L 20.344 28.462 L 20.344 28.513 C 21.587 28.513 22.608 27.535 22.675 26.308 L 22.624 26.306 Z M 20.344 28.462 L 20.344 28.41 C 20.015 28.41 19.69 28.335 19.397 28.198 L 19.375 28.245 L 19.353 28.292 C 19.659 28.434 19.999 28.513 20.344 28.513 L 20.344 28.462 Z M 19.375 28.245 L 19.324 28.241 C 19.239 29.22 18.411 29.996 17.407 29.996 L 17.407 30.048 L 17.407 30.099 C 18.465 30.099 19.338 29.282 19.426 28.25 L 19.375 28.245 Z M 17.407 30.048 L 17.407 29.996 C 16.863 29.996 16.34 29.764 15.976 29.356 L 15.938 29.391 L 15.899 29.425 C 16.283 29.855 16.834 30.099 17.407 30.099 L 17.407 30.048 Z M 15.938 29.391 L 15.974 29.354 L 15.378 28.758 L 15.342 28.795 L 15.305 28.831 L 15.901 29.427 L 15.938 29.391 Z M 15.342 28.795 L 15.318 28.749 C 15.075 28.873 14.8 28.941 14.521 28.941 L 14.521 28.992 L 14.521 29.044 C 14.816 29.044 15.108 28.972 15.365 28.841 L 15.342 28.795 Z M 14.521 28.992 L 14.521 28.941 L 14.438 28.941 L 14.438 28.992 L 14.438 29.044 L 14.521 29.044 L 14.521 28.992 Z M 14.438 28.992 L 14.441 28.941 C 13.97 28.917 13.53 28.713 13.211 28.366 L 13.173 28.4 L 13.135 28.435 C 13.473 28.803 13.938 29.018 14.436 29.044 L 14.438 28.992 Z M 13.173 28.4 L 13.211 28.366 C 12.979 28.11 12.828 27.803 12.773 27.472 L 12.722 27.48 L 12.671 27.489 C 12.73 27.84 12.89 28.165 13.135 28.435 L 13.173 28.4 Z M 12.722 27.48 L 12.688 27.441 C 12.299 27.774 11.809 27.959 11.296 27.959 L 11.296 28.011 L 11.296 28.062 C 11.834 28.062 12.348 27.868 12.755 27.52 L 12.722 27.48 Z M 11.296 28.011 L 11.296 27.959 L 11.197 27.959 L 11.197 28.011 L 11.197 28.062 L 11.296 28.062 L 11.296 28.011 Z M 11.197 28.011 L 11.199 27.959 C 10.626 27.935 10.101 27.686 9.712 27.265 L 9.674 27.3 L 9.636 27.335 C 10.043 27.776 10.594 28.037 11.195 28.062 L 11.197 28.011 Z M 9.674 27.3 L 9.712 27.265 L 9.514 27.052 L 9.477 27.087 L 9.439 27.122 L 9.636 27.335 L 9.674 27.3 Z M 9.477 27.087 L 9.515 27.052 C 9.13 26.631 8.929 26.081 8.953 25.507 L 8.901 25.505 L 8.85 25.503 C 8.825 26.104 9.035 26.68 9.439 27.122 L 9.477 27.087 Z M 8.901 25.505 L 8.953 25.507 C 8.957 25.416 8.969 25.324 8.985 25.231 L 8.935 25.222 L 8.884 25.213 C 8.867 25.308 8.854 25.405 8.85 25.503 L 8.901 25.505 Z M 8.935 25.222 L 8.926 25.171 C 8.801 25.191 8.672 25.203 8.544 25.203 L 8.544 25.255 L 8.544 25.306 C 8.679 25.306 8.813 25.293 8.943 25.273 L 8.935 25.222 Z M 8.544 25.255 L 8.544 25.203 L 8.438 25.203 L 8.438 25.255 L 8.438 25.306 L 8.544 25.306 L 8.544 25.255 Z M 8.438 25.255 L 8.44 25.203 C 7.809 25.175 7.23 24.898 6.804 24.427 L 6.766 24.462 L 6.727 24.497 C 7.172 24.987 7.776 25.277 8.435 25.306 L 8.438 25.255 Z M 6.766 24.462 L 6.804 24.427 C 5.932 23.458 5.997 21.951 6.949 21.062 L 6.914 21.024 L 6.879 20.987 C 5.885 21.914 5.818 23.486 6.727 24.496 L 6.766 24.462 Z M 6.914 21.024 L 6.949 21.062 L 7.524 20.528 L 7.489 20.49 L 7.454 20.452 L 6.879 20.987 L 6.914 21.024 Z M 7.489 20.49 L 7.503 20.441 C 7.2 20.357 6.912 20.189 6.68 19.938 L 6.643 19.973 L 6.605 20.008 C 6.85 20.274 7.154 20.451 7.476 20.54 L 7.489 20.49 Z M 6.643 19.973 L 6.681 19.938 L 6.644 19.897 L 6.605 19.932 L 6.567 19.966 L 6.604 20.007 L 6.643 19.973 Z M 6.605 19.932 L 6.643 19.897 C 6.324 19.55 6.161 19.099 6.181 18.628 L 6.13 18.626 L 6.078 18.624 C 6.057 19.122 6.23 19.599 6.568 19.967 L 6.605 19.932 Z M 6.13 18.626 L 6.181 18.628 C 6.201 18.157 6.404 17.727 6.752 17.407 L 6.717 17.369 L 6.682 17.331 C 6.315 17.669 6.1 18.125 6.078 18.624 L 6.13 18.626 Z M 6.717 17.369 L 6.751 17.407 L 6.932 17.243 L 6.897 17.205 L 6.863 17.167 L 6.682 17.331 L 6.717 17.369 Z M 6.897 17.205 L 6.937 17.172 C 6.691 16.878 6.402 16.399 6.362 15.756 L 6.311 15.759 L 6.259 15.762 C 6.301 16.433 6.603 16.933 6.858 17.238 L 6.897 17.205 Z M 6.311 15.759 L 6.362 15.756 C 6.341 15.425 6.222 15.051 6.085 14.719 C 5.947 14.386 5.789 14.091 5.685 13.917 L 5.641 13.943 L 5.596 13.97 C 5.698 14.14 5.854 14.431 5.99 14.758 C 6.125 15.087 6.239 15.448 6.259 15.762 L 6.311 15.759 Z M 5.641 13.943 L 5.671 13.902 L 0.204 9.963 L 0.174 10.005 L 0.144 10.047 L 5.61 13.985 L 5.641 13.943 Z M 0.174 10.005 L 0.204 9.963 C 0.038 9.841 0.003 9.609 0.122 9.443 L 0.08 9.413 L 0.038 9.383 C -0.114 9.595 -0.068 9.89 0.143 10.046 L 0.174 10.005 Z M 0.08 9.413 L 0.121 9.444 C 0.244 9.278 0.475 9.242 0.641 9.361 L 0.671 9.319 L 0.701 9.277 C 0.489 9.126 0.195 9.171 0.039 9.382 L 0.08 9.413 Z M 0.671 9.319 L 0.641 9.361 L 6.173 13.348 L 6.203 13.307 L 6.233 13.265 L 0.701 9.278 L 0.671 9.319 Z M 6.203 13.307 L 6.173 13.348 C 6.212 13.377 6.245 13.413 6.271 13.453 L 6.314 13.426 L 6.358 13.398 C 6.326 13.348 6.284 13.302 6.233 13.265 L 6.203 13.307 Z M 6.314 13.426 L 6.271 13.453 C 6.287 13.479 6.478 13.786 6.674 14.216 C 6.87 14.648 7.069 15.199 7.101 15.713 L 7.152 15.71 L 7.204 15.707 C 7.17 15.174 6.966 14.609 6.768 14.174 C 6.57 13.737 6.375 13.426 6.358 13.399 L 6.314 13.426 Z M 7.152 15.71 L 7.101 15.713 C 7.126 16.142 7.317 16.463 7.477 16.669 L 7.518 16.638 L 7.558 16.606 C 7.406 16.41 7.228 16.107 7.204 15.707 L 7.152 15.71 Z M 7.518 16.638 L 7.552 16.676 L 8.337 15.957 L 8.302 15.919 L 8.267 15.881 L 7.483 16.6 L 7.518 16.638 Z M 8.302 15.919 L 8.337 15.957 C 9.055 15.299 10.169 15.351 10.827 16.065 L 10.865 16.03 L 10.903 15.995 C 10.206 15.239 9.027 15.184 8.267 15.881 L 8.302 15.919 Z M 10.865 16.03 L 10.827 16.065 L 10.864 16.106 L 10.902 16.071 L 10.941 16.037 L 10.903 15.996 L 10.865 16.03 Z M 10.902 16.071 L 10.865 16.106 C 11.271 16.545 11.406 17.139 11.283 17.686 L 11.333 17.697 L 11.383 17.709 C 11.514 17.131 11.371 16.501 10.94 16.036 L 10.902 16.071 Z M 11.333 17.697 L 11.333 17.749 L 11.534 17.749 L 11.534 17.697 L 11.534 17.646 L 11.333 17.646 L 11.333 17.697 Z M 11.534 17.697 L 11.532 17.749 C 12.163 17.777 12.742 18.054 13.168 18.525 L 13.206 18.49 L 13.244 18.456 C 12.8 17.965 12.195 17.675 11.536 17.646 L 11.534 17.697 Z M 13.206 18.49 L 13.168 18.525 C 13.67 19.083 13.859 19.815 13.751 20.512 L 13.802 20.52 L 13.853 20.527 C 13.966 19.803 13.769 19.039 13.244 18.456 L 13.206 18.49 Z M 13.802 20.52 L 13.814 20.57 C 14.007 20.521 14.211 20.501 14.416 20.509 L 14.418 20.457 L 14.42 20.406 C 14.206 20.397 13.991 20.419 13.789 20.47 L 13.802 20.52 Z M 14.418 20.457 L 14.416 20.509 C 14.989 20.533 15.514 20.782 15.904 21.203 L 15.941 21.168 L 15.979 21.133 C 15.572 20.692 15.021 20.431 14.42 20.406 L 14.418 20.457 Z M 15.941 21.168 L 15.904 21.203 L 16.101 21.417 L 16.139 21.382 L 16.177 21.347 L 15.979 21.133 L 15.941 21.168 Z M 16.139 21.382 L 16.101 21.417 C 16.486 21.838 16.686 22.387 16.662 22.961 L 16.714 22.963 L 16.765 22.965 C 16.791 22.364 16.58 21.788 16.177 21.347 L 16.139 21.382 Z M 16.714 22.963 L 16.662 22.96 C 16.658 23.032 16.65 23.101 16.642 23.171 L 16.693 23.177 L 16.745 23.183 C 16.753 23.113 16.761 23.041 16.765 22.966 L 16.714 22.963 Z M 16.693 23.177 L 16.7 23.228 C 16.791 23.216 16.887 23.212 16.982 23.216 L 16.984 23.164 L 16.987 23.113 C 16.885 23.108 16.784 23.113 16.687 23.126 L 16.693 23.177 Z M 16.984 23.164 L 16.982 23.216 C 17.453 23.24 17.893 23.444 18.212 23.791 L 18.25 23.756 L 18.288 23.721 C 17.95 23.354 17.485 23.138 16.987 23.113 L 16.984 23.164 Z M 18.25 23.756 L 18.212 23.791 C 18.531 24.138 18.694 24.588 18.674 25.063 L 18.726 25.065 L 18.777 25.068 C 18.798 24.566 18.626 24.088 18.288 23.721 L 18.25 23.756 Z M 18.726 25.065 L 18.674 25.063 C 18.658 25.462 18.511 25.833 18.256 26.133 L 18.295 26.166 L 18.334 26.199 C 18.604 25.883 18.76 25.49 18.777 25.067 L 18.726 25.065 Z M 18.295 26.166 L 18.258 26.202 L 19.212 27.156 L 19.248 27.119 L 19.284 27.083 L 18.331 26.13 L 18.295 26.166 Z M 19.248 27.119 L 19.212 27.156 C 19.215 27.159 19.218 27.161 19.219 27.162 C 19.22 27.163 19.221 27.164 19.221 27.164 C 19.222 27.165 19.22 27.163 19.218 27.159 L 19.264 27.136 L 19.31 27.112 C 19.304 27.101 19.296 27.093 19.291 27.088 C 19.288 27.086 19.286 27.084 19.285 27.083 C 19.283 27.081 19.283 27.082 19.284 27.082 L 19.248 27.119 Z M 19.264 27.136 L 19.225 27.17 C 19.51 27.489 19.918 27.672 20.344 27.672 L 20.344 27.62 L 20.344 27.569 C 19.948 27.568 19.567 27.398 19.302 27.101 L 19.264 27.136 Z M 20.344 27.62 L 20.344 27.672 C 21.169 27.672 21.838 27.004 21.838 26.179 L 21.786 26.179 L 21.735 26.179 C 21.735 26.947 21.112 27.569 20.344 27.569 L 20.344 27.62 Z M 21.786 26.179 L 21.838 26.179 C 21.838 25.766 21.671 25.383 21.374 25.099 L 21.338 25.136 L 21.302 25.173 C 21.58 25.439 21.735 25.795 21.735 26.179 L 21.786 26.179 Z M 21.338 25.136 L 21.374 25.099 L 18.742 22.466 L 18.705 22.503 L 18.669 22.539 L 21.301 25.172 L 21.338 25.136 Z M 18.705 22.503 L 18.742 22.467 C 18.597 22.318 18.598 22.084 18.742 21.94 L 18.705 21.903 L 18.669 21.867 C 18.484 22.052 18.485 22.351 18.668 22.539 L 18.705 22.503 Z M 18.705 21.903 L 18.741 21.94 C 18.89 21.795 19.124 21.796 19.268 21.94 L 19.305 21.903 L 19.341 21.867 C 19.156 21.682 18.857 21.683 18.669 21.866 L 18.705 21.903 Z M 19.305 21.903 L 19.268 21.94 L 21.692 24.363 L 21.729 24.326 L 21.765 24.29 L 19.341 21.867 L 19.305 21.903 Z M 21.729 24.326 L 21.703 24.371 C 21.727 24.384 21.748 24.402 21.77 24.424 L 21.807 24.388 L 21.843 24.351 C 21.816 24.324 21.788 24.301 21.754 24.281 L 21.729 24.326 Z M 21.807 24.388 L 21.77 24.424 L 22.666 25.32 L 22.702 25.283 L 22.739 25.247 L 21.843 24.351 L 21.807 24.388 Z M 22.702 25.283 L 22.666 25.32 C 22.669 25.323 22.672 25.325 22.673 25.326 C 22.674 25.327 22.675 25.328 22.675 25.328 C 22.676 25.329 22.674 25.327 22.672 25.323 L 22.718 25.3 L 22.764 25.276 C 22.758 25.265 22.75 25.257 22.745 25.252 C 22.742 25.25 22.74 25.248 22.739 25.247 C 22.737 25.246 22.738 25.246 22.738 25.246 L 22.702 25.283 Z M 22.718 25.3 L 22.679 25.334 C 22.964 25.657 23.373 25.841 23.803 25.841 L 23.803 25.789 L 23.803 25.738 C 23.403 25.738 23.022 25.567 22.756 25.266 L 22.718 25.3 Z M 23.803 25.789 L 23.803 25.841 C 24.628 25.84 25.3 25.168 25.3 24.343 L 25.248 24.343 L 25.197 24.343 C 25.197 25.111 24.571 25.737 23.803 25.738 L 23.803 25.789 Z M 25.248 24.343 L 25.3 24.343 C 25.3 23.994 25.176 23.666 24.96 23.398 L 24.92 23.431 L 24.88 23.463 C 25.082 23.713 25.196 24.018 25.197 24.343 L 25.248 24.343 Z M 24.92 23.431 L 24.954 23.392 C 24.894 23.34 24.838 23.281 24.781 23.22 L 24.743 23.255 L 24.705 23.29 C 24.763 23.351 24.822 23.414 24.886 23.47 L 24.92 23.431 Z M 24.743 23.255 L 24.786 23.226 C 24.782 23.221 24.777 23.212 24.772 23.205 C 24.767 23.198 24.763 23.191 24.762 23.189 L 24.719 23.218 L 24.676 23.246 C 24.677 23.248 24.681 23.254 24.686 23.261 C 24.691 23.269 24.696 23.278 24.7 23.283 L 24.743 23.255 Z M 24.719 23.218 L 24.756 23.182 L 22.045 20.417 L 22.008 20.453 L 21.971 20.489 L 24.682 23.254 L 24.719 23.218 Z M 22.008 20.453 L 22.045 20.417 C 21.9 20.269 21.9 20.034 22.048 19.89 L 22.012 19.854 L 21.976 19.817 C 21.786 20.001 21.787 20.301 21.971 20.489 L 22.008 20.453 Z M 22.012 19.854 L 22.048 19.89 C 22.196 19.746 22.431 19.746 22.574 19.893 L 22.611 19.857 L 22.648 19.821 C 22.464 19.632 22.164 19.633 21.976 19.817 L 22.012 19.854 Z M 22.611 19.857 L 22.575 19.893 L 25.347 22.724 L 25.384 22.688 L 25.421 22.651 L 22.648 19.821 L 22.611 19.857 Z M 25.384 22.688 L 25.347 22.724 C 25.392 22.769 25.436 22.813 25.475 22.86 L 25.515 22.827 L 25.554 22.794 C 25.512 22.743 25.465 22.696 25.42 22.651 L 25.384 22.688 Z M 25.515 22.827 L 25.481 22.866 C 25.782 23.129 26.169 23.265 26.572 23.253 L 26.57 23.201 L 26.569 23.15 C 26.191 23.161 25.83 23.034 25.549 22.788 L 25.515 22.827 Z M 26.57 23.201 L 26.572 23.253 C 27.375 23.223 28.037 22.569 28.08 21.766 L 28.028 21.764 L 27.977 21.761 C 27.937 22.511 27.318 23.122 26.568 23.15 L 26.57 23.201 Z M 28.028 21.764 L 28.08 21.767 C 28.105 21.308 27.927 20.862 27.596 20.544 L 27.561 20.581 L 27.525 20.618 C 27.834 20.916 28.001 21.333 27.977 21.761 L 28.028 21.764 Z M 27.561 20.581 L 27.597 20.545 C 27.593 20.541 27.588 20.535 27.583 20.53 C 27.58 20.527 27.578 20.525 27.576 20.523 C 27.575 20.522 27.575 20.521 27.574 20.521 C 27.574 20.521 27.574 20.521 27.574 20.52 C 27.574 20.52 27.574 20.52 27.574 20.52 C 27.574 20.52 27.574 20.52 27.574 20.52 C 27.574 20.52 27.574 20.52 27.574 20.52 C 27.574 20.52 27.574 20.52 27.574 20.52 C 27.574 20.52 27.574 20.52 27.574 20.52 C 27.574 20.52 27.574 20.52 27.536 20.556 C 27.499 20.591 27.499 20.591 27.499 20.591 C 27.499 20.591 27.499 20.591 27.499 20.591 C 27.499 20.591 27.499 20.591 27.499 20.591 C 27.499 20.591 27.499 20.591 27.499 20.591 C 27.499 20.591 27.499 20.591 27.499 20.591 C 27.499 20.591 27.499 20.591 27.499 20.591 C 27.499 20.591 27.499 20.592 27.499 20.592 C 27.5 20.592 27.501 20.593 27.501 20.594 C 27.503 20.596 27.505 20.598 27.508 20.601 C 27.513 20.606 27.52 20.613 27.524 20.618 L 27.561 20.581 Z M 27.536 20.556 L 27.574 20.521 L 19.043 11.038 L 19.005 11.072 L 18.967 11.107 L 27.498 20.59 L 27.536 20.556 Z M 19.005 11.072 L 19.043 11.038 C 18.852 10.827 18.681 10.726 18.539 10.683 C 18.397 10.641 18.287 10.659 18.22 10.683 L 18.237 10.731 L 18.255 10.78 C 18.303 10.763 18.39 10.746 18.509 10.782 C 18.629 10.818 18.785 10.907 18.967 11.107 L 19.005 11.072 Z M 18.237 10.731 L 18.197 10.7 L 15.371 14.306 L 15.411 14.338 L 15.452 14.37 L 18.278 10.763 L 18.237 10.731 Z M 15.411 14.338 L 15.37 14.306 C 15.001 14.78 14.468 15.077 13.874 15.145 L 13.88 15.196 L 13.886 15.247 C 14.507 15.176 15.065 14.865 15.452 14.37 L 15.411 14.338 Z M 13.88 15.196 L 13.874 15.145 C 13.28 15.213 12.693 15.045 12.223 14.672 L 12.191 14.712 L 12.159 14.752 C 12.651 15.143 13.264 15.319 13.886 15.247 L 13.88 15.196 Z M 12.191 14.712 L 12.224 14.672 C 11.381 13.993 11.144 12.813 11.658 11.865 L 11.612 11.841 L 11.567 11.816 C 11.03 12.807 11.277 14.042 12.159 14.752 L 12.191 14.712 Z M 11.612 11.841 L 11.658 11.865 C 12.347 10.598 13.436 8.846 14.744 7.661 L 14.709 7.623 L 14.674 7.585 C 13.354 8.782 12.258 10.546 11.567 11.816 L 11.612 11.841 Z M 14.709 7.623 L 14.744 7.661 C 14.865 7.548 14.996 7.446 15.127 7.348 L 15.096 7.307 L 15.065 7.265 C 14.933 7.364 14.799 7.468 14.674 7.585 L 14.709 7.623 Z M 15.096 7.307 L 15.104 7.256 C 14.835 7.21 14.47 7.169 13.992 7.156 L 13.99 7.208 L 13.989 7.26 C 14.463 7.272 14.823 7.313 15.087 7.357 L 15.096 7.307 Z M 13.99 7.208 L 13.992 7.156 C 12.365 7.116 11.651 6.449 11.483 6.262 L 11.444 6.296 L 11.406 6.33 C 11.591 6.537 12.331 7.218 13.989 7.26 L 13.99 7.208 Z M 11.444 6.296 L 11.477 6.256 L 6.19 2.034 L 6.158 2.074 L 6.126 2.114 L 11.412 6.336 L 11.444 6.296 Z M 6.158 2.074 L 6.191 2.034 C 6.032 1.904 6.007 1.669 6.133 1.511 L 6.093 1.479 L 6.052 1.446 C 5.891 1.649 5.923 1.949 6.126 2.114 L 6.158 2.074 Z M 16.011 28.266 L 15.974 28.302 L 16.505 28.831 L 16.541 28.795 L 16.577 28.758 L 16.047 28.229 L 16.011 28.266 Z M 16.541 28.795 L 16.505 28.831 C 16.508 28.835 16.512 28.838 16.513 28.839 C 16.515 28.84 16.516 28.841 16.516 28.841 C 16.517 28.842 16.514 28.84 16.512 28.835 L 16.558 28.812 L 16.604 28.788 C 16.597 28.775 16.588 28.767 16.582 28.762 C 16.58 28.76 16.577 28.758 16.576 28.757 C 16.575 28.756 16.576 28.757 16.577 28.758 L 16.541 28.795 Z M 16.558 28.812 L 16.519 28.846 C 16.742 29.099 17.064 29.245 17.403 29.245 L 17.403 29.193 L 17.403 29.142 C 17.094 29.142 16.8 29.009 16.596 28.777 L 16.558 28.812 Z M 17.403 29.193 L 17.367 29.23 L 17.371 29.234 L 17.407 29.197 L 17.444 29.161 L 17.44 29.157 L 17.403 29.193 Z M 17.407 29.197 L 17.407 29.249 C 18.06 29.249 18.592 28.717 18.593 28.064 L 18.541 28.064 L 18.489 28.064 C 18.489 28.66 18.003 29.146 17.407 29.146 L 17.407 29.197 Z M 18.541 28.064 L 18.593 28.064 C 18.593 27.738 18.459 27.432 18.223 27.205 L 18.188 27.242 L 18.152 27.279 C 18.368 27.488 18.489 27.767 18.489 28.064 L 18.541 28.064 Z M 18.188 27.242 L 18.224 27.206 C 18.214 27.196 18.198 27.176 18.195 27.173 L 18.155 27.206 L 18.116 27.239 C 18.118 27.242 18.138 27.265 18.151 27.279 L 18.188 27.242 Z M 18.155 27.206 L 18.192 27.17 L 17.719 26.697 L 17.683 26.733 L 17.646 26.77 L 18.119 27.243 L 18.155 27.206 Z M 17.683 26.733 L 17.648 26.695 L 15.976 28.228 L 16.011 28.266 L 16.046 28.304 L 17.717 26.771 L 17.683 26.733 Z M 16.902 23.994 L 16.902 23.943 C 16.643 23.943 16.396 24.038 16.206 24.215 L 16.241 24.253 L 16.276 24.291 C 16.447 24.131 16.669 24.046 16.902 24.046 L 16.902 23.994 Z M 16.241 24.253 L 16.206 24.215 L 15.964 24.437 L 15.999 24.475 L 16.034 24.513 L 16.276 24.291 L 16.241 24.253 Z M 15.999 24.475 L 15.964 24.437 L 13.82 26.403 L 13.854 26.441 L 13.889 26.479 L 16.034 24.513 L 15.999 24.475 Z M 13.854 26.441 L 13.82 26.403 C 13.617 26.589 13.501 26.841 13.488 27.117 L 13.539 27.119 L 13.591 27.122 C 13.602 26.872 13.707 26.647 13.889 26.479 L 13.854 26.441 Z M 13.539 27.119 L 13.488 27.117 C 13.475 27.389 13.569 27.653 13.755 27.856 L 13.793 27.821 L 13.831 27.787 C 13.664 27.604 13.579 27.366 13.591 27.122 L 13.539 27.119 Z M 13.793 27.821 L 13.755 27.856 C 13.941 28.059 14.192 28.176 14.468 28.189 L 14.471 28.138 L 14.473 28.086 C 14.224 28.074 13.998 27.969 13.831 27.786 L 13.793 27.821 Z M 14.471 28.138 L 14.522 28.138 L 14.522 28.134 L 14.471 28.134 L 14.419 28.134 L 14.419 28.138 L 14.471 28.138 Z M 14.471 28.134 L 14.468 28.185 C 14.737 28.198 15.005 28.103 15.208 27.917 L 15.173 27.879 L 15.138 27.841 C 14.955 28.008 14.714 28.094 14.473 28.082 L 14.471 28.134 Z M 15.173 27.879 L 15.208 27.917 L 17.598 25.728 L 17.563 25.69 L 17.529 25.652 L 15.138 27.841 L 15.173 27.879 Z M 17.563 25.69 L 17.598 25.728 C 17.801 25.543 17.918 25.291 17.931 25.015 L 17.88 25.013 L 17.828 25.01 C 17.817 25.26 17.711 25.485 17.529 25.652 L 17.563 25.69 Z M 17.88 25.013 L 17.931 25.015 C 17.944 24.743 17.849 24.478 17.663 24.275 L 17.625 24.31 L 17.587 24.344 C 17.754 24.527 17.84 24.765 17.828 25.01 L 17.88 25.013 Z M 17.625 24.31 L 17.663 24.275 C 17.477 24.072 17.226 23.956 16.95 23.943 L 16.947 23.994 L 16.945 24.046 C 17.194 24.057 17.42 24.162 17.587 24.344 L 17.625 24.31 Z M 16.947 23.994 L 16.947 23.943 L 16.902 23.943 L 16.902 23.994 L 16.902 24.046 L 16.947 24.046 L 16.947 23.994 Z M 14.319 21.291 L 14.319 21.239 C 13.983 21.239 13.641 21.359 13.372 21.607 L 13.407 21.645 L 13.442 21.682 C 13.691 21.454 14.007 21.343 14.319 21.343 L 14.319 21.291 Z M 13.407 21.645 L 13.372 21.607 L 10.149 24.56 L 10.184 24.598 L 10.218 24.636 L 13.442 21.683 L 13.407 21.645 Z M 10.184 24.598 L 10.149 24.559 C 9.872 24.811 9.71 25.157 9.693 25.532 L 9.744 25.534 L 9.796 25.537 C 9.811 25.189 9.961 24.869 10.218 24.636 L 10.184 24.598 Z M 9.744 25.534 L 9.693 25.532 C 9.676 25.907 9.807 26.266 10.059 26.542 L 10.097 26.508 L 10.135 26.473 C 9.902 26.216 9.78 25.884 9.796 25.537 L 9.744 25.534 Z M 10.097 26.508 L 10.059 26.543 L 10.256 26.756 L 10.294 26.721 L 10.332 26.686 L 10.134 26.473 L 10.097 26.508 Z M 10.294 26.721 L 10.256 26.756 C 10.508 27.028 10.853 27.191 11.228 27.208 L 11.23 27.156 L 11.233 27.105 C 10.885 27.089 10.565 26.939 10.332 26.686 L 10.294 26.721 Z M 11.23 27.156 L 11.207 27.202 L 11.215 27.206 L 11.238 27.16 L 11.261 27.114 L 11.254 27.11 L 11.23 27.156 Z M 11.238 27.16 L 11.236 27.212 C 11.615 27.229 11.97 27.097 12.247 26.846 L 12.212 26.808 L 12.177 26.769 C 11.92 27.003 11.592 27.124 11.241 27.109 L 11.238 27.16 Z M 12.212 26.808 L 12.247 26.846 L 13.323 25.859 L 13.288 25.821 L 13.253 25.783 L 12.177 26.77 L 12.212 26.808 Z M 13.288 25.821 L 13.323 25.859 L 15.466 23.892 L 15.432 23.854 L 15.397 23.817 L 13.253 25.783 L 13.288 25.821 Z M 15.432 23.854 L 15.466 23.893 C 16.038 23.372 16.077 22.481 15.553 21.909 L 15.515 21.944 L 15.477 21.979 C 15.962 22.509 15.926 23.335 15.397 23.816 L 15.432 23.854 Z M 15.515 21.944 L 15.553 21.909 L 15.355 21.696 L 15.317 21.73 L 15.279 21.765 L 15.477 21.979 L 15.515 21.944 Z M 15.317 21.73 L 15.355 21.696 C 15.078 21.393 14.699 21.24 14.319 21.239 L 14.319 21.291 L 14.319 21.343 C 14.671 21.343 15.023 21.485 15.279 21.765 L 15.317 21.73 Z M 11.424 18.523 L 11.424 18.472 C 11.143 18.472 10.876 18.548 10.638 18.684 L 10.664 18.729 L 10.69 18.773 C 10.912 18.646 11.162 18.575 11.424 18.575 L 11.424 18.523 Z M 10.664 18.729 L 10.629 18.69 L 9.162 20.033 L 9.197 20.071 L 9.232 20.109 L 10.699 18.767 L 10.664 18.729 Z M 9.197 20.071 L 9.163 20.033 C 9.091 20.096 9.02 20.149 8.943 20.202 L 8.972 20.244 L 9.001 20.287 C 9.08 20.233 9.155 20.178 9.232 20.11 L 9.197 20.071 Z M 8.972 20.244 L 8.937 20.206 L 7.449 21.594 L 7.484 21.632 L 7.52 21.67 L 9.007 20.282 L 8.972 20.244 Z M 7.484 21.632 L 7.449 21.594 C 6.792 22.209 6.75 23.252 7.352 23.921 L 7.391 23.887 L 7.429 23.852 C 6.864 23.224 6.904 22.246 7.52 21.669 L 7.484 21.632 Z M 7.391 23.887 L 7.352 23.921 C 7.641 24.243 8.04 24.435 8.469 24.452 L 8.471 24.4 L 8.473 24.349 C 8.072 24.333 7.699 24.154 7.429 23.852 L 7.391 23.887 Z M 8.471 24.4 L 8.507 24.437 L 8.511 24.433 L 8.475 24.396 L 8.438 24.36 L 8.434 24.364 L 8.471 24.4 Z M 8.475 24.396 L 8.472 24.448 C 8.901 24.469 9.309 24.316 9.627 24.019 L 9.592 23.981 L 9.557 23.944 C 9.258 24.222 8.878 24.365 8.477 24.345 L 8.475 24.396 Z M 9.592 23.981 L 9.627 24.019 L 12.515 21.329 L 12.479 21.291 L 12.444 21.253 L 9.557 23.944 L 9.592 23.981 Z M 12.479 21.291 L 12.515 21.329 C 13.172 20.714 13.213 19.671 12.612 19.002 L 12.573 19.036 L 12.535 19.071 C 13.099 19.699 13.06 20.677 12.444 21.253 L 12.479 21.291 Z M 12.573 19.036 L 12.612 19.002 C 12.323 18.68 11.924 18.489 11.495 18.472 L 11.493 18.523 L 11.491 18.575 C 11.892 18.591 12.265 18.769 12.535 19.071 L 12.573 19.036 Z M 11.493 18.523 L 11.493 18.472 L 11.424 18.472 L 11.424 18.523 L 11.424 18.575 L 11.493 18.575 L 11.493 18.523 Z M 9.521 16.272 L 9.521 16.221 C 9.275 16.221 9.029 16.312 8.834 16.489 L 8.869 16.527 L 8.904 16.565 C 9.079 16.406 9.3 16.324 9.522 16.324 L 9.521 16.272 Z M 8.869 16.527 L 8.834 16.489 L 7.248 17.942 L 7.283 17.98 L 7.318 18.018 L 8.904 16.565 L 8.869 16.527 Z M 7.283 17.98 L 7.248 17.942 C 6.833 18.323 6.803 18.968 7.184 19.383 L 7.222 19.349 L 7.26 19.314 C 6.918 18.941 6.945 18.361 7.318 18.018 L 7.283 17.98 Z M 7.222 19.349 L 7.183 19.383 L 7.221 19.424 L 7.259 19.39 L 7.297 19.355 L 7.26 19.314 L 7.222 19.349 Z M 7.259 19.39 L 7.259 19.338 L 7.255 19.338 L 7.255 19.39 L 7.255 19.441 L 7.259 19.441 L 7.259 19.39 Z M 7.255 19.39 L 7.217 19.425 C 7.546 19.779 8.073 19.853 8.476 19.619 L 8.45 19.574 L 8.424 19.53 C 8.063 19.739 7.588 19.674 7.293 19.355 L 7.255 19.39 Z M 8.45 19.574 L 8.485 19.612 L 9.828 18.36 L 9.793 18.322 L 9.758 18.285 L 8.415 19.537 L 8.45 19.574 Z M 9.793 18.322 L 9.827 18.361 C 9.941 18.259 10.058 18.167 10.181 18.091 L 10.154 18.047 L 10.127 18.003 C 9.997 18.083 9.875 18.18 9.759 18.284 L 9.793 18.322 Z M 10.154 18.047 L 10.189 18.085 L 10.247 18.031 L 10.212 17.993 L 10.177 17.955 L 10.119 18.009 L 10.154 18.047 Z M 10.212 17.993 L 10.247 18.031 C 10.662 17.651 10.692 17.007 10.311 16.591 L 10.273 16.626 L 10.235 16.661 C 10.577 17.034 10.55 17.613 10.177 17.955 L 10.212 17.993 Z M 10.273 16.626 L 10.312 16.592 L 10.275 16.55 L 10.236 16.584 L 10.198 16.618 L 10.235 16.66 L 10.273 16.626 Z M 10.236 16.584 L 10.274 16.549 C 10.075 16.333 9.798 16.221 9.521 16.221 L 9.521 16.272 L 9.521 16.324 C 9.771 16.324 10.02 16.425 10.198 16.619 L 10.236 16.584 Z M 12.29 1.491 L 12.326 1.528 C 12.471 1.383 12.706 1.379 12.854 1.523 L 12.89 1.486 L 12.926 1.449 C 12.737 1.265 12.437 1.271 12.254 1.455 L 12.29 1.491 Z M 12.89 1.486 L 12.853 1.523 L 15.026 3.664 L 15.063 3.627 L 15.099 3.59 L 12.926 1.45 L 12.89 1.486 Z M 15.063 3.627 L 15.026 3.663 C 15.17 3.808 15.174 4.043 15.03 4.191 L 15.066 4.227 L 15.103 4.263 C 15.287 4.074 15.283 3.775 15.099 3.591 L 15.063 3.627 Z M 15.066 4.227 L 15.029 4.191 C 14.958 4.266 14.86 4.302 14.767 4.302 L 14.767 4.354 L 14.767 4.405 C 14.886 4.405 15.011 4.359 15.104 4.262 L 15.066 4.227 Z M 14.767 4.354 L 14.767 4.302 C 14.673 4.302 14.579 4.266 14.507 4.194 L 14.471 4.23 L 14.434 4.267 C 14.526 4.359 14.647 4.405 14.767 4.405 L 14.767 4.354 Z M 14.471 4.23 L 14.471 4.179 L 14.467 4.179 L 14.467 4.23 L 14.467 4.282 L 14.471 4.282 L 14.471 4.23 Z M 14.467 4.23 L 14.503 4.194 L 12.33 2.054 L 12.294 2.091 L 12.258 2.128 L 14.431 4.267 L 14.467 4.23 Z M 12.294 2.091 L 12.33 2.054 C 12.186 1.91 12.183 1.675 12.327 1.527 L 12.29 1.491 L 12.253 1.455 C 12.069 1.644 12.073 1.943 12.257 2.127 L 12.294 2.091 Z M 18.447 0 L 18.447 0.052 C 18.653 0.052 18.819 0.217 18.819 0.423 L 18.87 0.423 L 18.922 0.423 C 18.922 0.16 18.71 -0.052 18.447 -0.052 L 18.447 0 Z M 18.87 0.423 L 18.819 0.423 L 18.819 3.926 L 18.87 3.926 L 18.922 3.926 L 18.922 0.423 L 18.87 0.423 Z M 18.87 3.926 L 18.819 3.926 C 18.819 4.132 18.653 4.298 18.447 4.298 L 18.447 4.35 L 18.447 4.401 C 18.71 4.401 18.922 4.188 18.922 3.926 L 18.87 3.926 Z M 18.447 4.35 L 18.396 4.35 L 18.396 4.354 L 18.447 4.354 L 18.499 4.354 L 18.499 4.35 L 18.447 4.35 Z M 18.447 4.354 L 18.447 4.302 C 18.242 4.302 18.076 4.136 18.076 3.931 L 18.024 3.931 L 17.973 3.931 C 17.973 4.193 18.185 4.405 18.447 4.405 L 18.447 4.354 Z M 18.024 3.931 L 18.076 3.931 L 18.076 0.423 L 18.024 0.423 L 17.973 0.423 L 17.973 3.931 L 18.024 3.931 Z M 18.024 0.423 L 18.076 0.423 C 18.076 0.217 18.242 0.052 18.447 0.052 L 18.447 0 L 18.447 -0.052 C 18.185 -0.052 17.973 0.16 17.973 0.423 L 18.024 0.423 Z M 24.049 1.482 L 24.085 1.519 C 24.233 1.374 24.468 1.375 24.612 1.522 L 24.648 1.486 L 24.685 1.45 C 24.501 1.261 24.201 1.262 24.013 1.446 L 24.049 1.482 Z M 24.648 1.486 L 24.612 1.522 C 24.756 1.671 24.756 1.905 24.609 2.049 L 24.645 2.086 L 24.681 2.123 C 24.87 1.938 24.869 1.638 24.685 1.45 L 24.648 1.486 Z M 24.645 2.086 L 24.608 2.049 L 22.436 4.189 L 22.472 4.226 L 22.508 4.262 L 24.681 2.123 L 24.645 2.086 Z M 22.472 4.226 L 22.435 4.189 C 22.363 4.262 22.269 4.298 22.176 4.298 L 22.176 4.35 L 22.176 4.401 C 22.296 4.401 22.416 4.354 22.508 4.262 L 22.472 4.226 Z M 22.176 4.35 L 22.176 4.298 L 22.172 4.298 L 22.172 4.35 L 22.172 4.401 L 22.176 4.401 L 22.176 4.35 Z M 22.172 4.35 L 22.172 4.298 C 22.079 4.298 21.981 4.258 21.909 4.185 L 21.872 4.222 L 21.836 4.258 C 21.927 4.35 22.051 4.401 22.172 4.401 L 22.172 4.35 Z M 21.872 4.222 L 21.909 4.186 C 21.764 4.037 21.765 3.803 21.912 3.659 L 21.876 3.622 L 21.84 3.585 C 21.651 3.77 21.652 4.069 21.835 4.258 L 21.872 4.222 Z M 21.876 3.622 L 21.912 3.659 L 24.085 1.519 L 24.049 1.482 L 24.013 1.446 L 21.84 3.585 L 21.876 3.622 Z" fill="currentColor" fill-rule="nonzero"></path>
</svg>