<svg xmlns="http://www.w3.org/2000/svg" width="38.687" height="29.726" viewBox="0 0 38.687 29.726" fill="none">
  <path d="M 36.004 9.894 C 36.624 9.397 37.512 9.41 38.114 9.925 L 38.105 9.92 C 38.703 10.43 38.862 11.296 38.479 11.986 L 34.562 19.04 C 34.131 19.818 33.44 20.43 32.618 20.764 L 28.261 22.531 L 28.027 23.248 L 28.335 23.354 C 28.511 23.415 28.608 23.603 28.551 23.779 L 26.708 29.487 C 26.664 29.628 26.533 29.72 26.388 29.72 C 26.353 29.72 26.317 29.715 26.282 29.702 C 26.102 29.645 26.006 29.457 26.063 29.276 L 27.804 23.89 L 21.226 21.651 L 17.497 29.531 C 17.414 29.703 17.211 29.772 17.044 29.693 C 16.873 29.61 16.802 29.408 16.881 29.241 L 18.965 24.835 L 17.462 21.656 L 10.884 23.894 L 12.625 29.28 C 12.682 29.456 12.585 29.65 12.405 29.707 C 12.37 29.72 12.334 29.725 12.299 29.725 C 12.158 29.724 12.027 29.636 11.979 29.491 L 10.136 23.784 C 10.083 23.608 10.176 23.419 10.352 23.357 L 10.659 23.252 L 10.426 22.535 L 6.068 20.768 C 5.246 20.433 4.556 19.822 4.125 19.044 L 0.207 11.991 C -0.175 11.305 -0.017 10.435 0.581 9.925 C 1.183 9.41 2.071 9.397 2.691 9.894 L 5.59 12.22 C 5.757 12.053 5.959 11.912 6.183 11.815 C 6.666 11.609 7.199 11.604 7.683 11.811 L 12.105 13.688 C 13.407 14.238 14.454 15.245 15.061 16.524 L 17.193 21.027 L 17.532 20.913 C 17.699 20.856 17.875 20.935 17.949 21.089 L 19.348 24.039 L 20.746 21.089 C 20.821 20.935 21.001 20.856 21.164 20.913 L 21.502 21.027 L 23.635 16.524 C 24.237 15.249 25.288 14.243 26.59 13.688 L 31.013 11.811 C 31.496 11.604 32.029 11.604 32.513 11.815 C 32.737 11.912 32.939 12.053 33.106 12.22 L 36.004 9.894 Z M 19.352 0.968 C 20.974 0.968 22.294 2.287 22.294 3.909 C 22.294 5.532 20.974 6.851 19.352 6.851 C 17.729 6.85 16.41 5.532 16.41 3.909 C 16.41 2.287 17.729 0.968 19.352 0.968 Z M 12.896 0 C 14.299 0 15.438 1.139 15.438 2.541 C 15.438 3.944 14.299 5.083 12.896 5.083 C 11.494 5.083 10.355 3.944 10.355 2.541 C 10.356 1.139 11.494 0 12.896 0 Z M 25.808 0 C 27.21 0 28.348 1.139 28.349 2.541 C 28.349 3.944 27.21 5.083 25.808 5.083 C 24.405 5.083 23.266 3.944 23.266 2.541 C 23.266 1.139 24.405 0 25.808 0 Z" fill="currentColor" fill-rule="nonzero"></path>
</svg>
