<svg xmlns="http://www.w3.org/2000/svg" width="35" height="18" viewBox="0 0 35 18" fill="none">
  <path d="M 22.647 18 L 18.529 18 L 18.529 6 L 22.647 6 L 22.647 18 Z" fill="currentColor" fill-rule="nonzero"></path>
  <path d="M 35 4 L 24.706 4 L 24.706 0 L 35 0 L 35 4 Z" fill="currentColor" fill-rule="nonzero"></path>
  <path d="M 22.647 0 L 18.529 0 L 18.529 4 L 22.647 4 L 22.647 0 Z" fill="currentColor" fill-rule="nonzero"></path>
  <path d="M 16.471 18 L 12.353 18 L 12.353 0 L 16.471 0 L 16.471 18 Z" fill="currentColor" fill-rule="nonzero"></path>
  <path d="M 10.294 14 L 6.176 14 L 6.176 0 L 10.294 0 L 10.294 14 Z" fill="currentColor" fill-rule="nonzero"></path>
  <path d="M 4.118 18 L 0 18 L 0 0 L 4.118 0 L 4.118 18 Z" fill="currentColor" fill-rule="nonzero"></path>
  <path d="M 28.824 18 L 24.706 18 L 24.706 6 L 28.824 6 L 28.824 18 Z" fill="currentColor" fill-rule="nonzero"></path>
</svg>
